<?xml version="1.0" encoding="UTF-8" standalone="no"?><svg xmlns="http://www.w3.org/2000/svg" xmlns:xlink="http://www.w3.org/1999/xlink" clip-rule="evenodd" stroke-miterlimit="10" viewBox="0 0 1024 768"><desc>SVG generated by Keynote</desc><defs></defs><g transform="matrix(1.00, 0.00, -0.00, -1.00, 0.0, 768.0)"><path d="M 0.0 768.0 L 1024.0 768.0 L 1024.0 0.0 L 0.0 0.0 Z M 0.0 768.0 " fill="#FEFFFF"></path><text xml:space="preserve" font-family="CooperBlackMS,Cooper Black" font-weight="bold" font-size="80.0" fill="#000000" transform="matrix(1.00, 0.00, -0.00, -1.00, 406.3, 601.6)">P</text><text xml:space="preserve" font-family="CooperBlackMS,Cooper Black" font-weight="bold" font-size="80.0" fill="#000000" transform="matrix(1.00, 0.00, -0.00, -1.00, 461.1, 601.6)">u</text><text xml:space="preserve" font-family="CooperBlackMS,Cooper Black" font-weight="bold" font-size="80.0" fill="#000000" transform="matrix(1.00, 0.00, -0.00, -1.00, 515.3, 601.6)">t</text><text xml:space="preserve" font-family="CooperBlackMS,Cooper Black" font-weight="bold" font-size="80.0" fill="#000000" transform="matrix(1.00, 0.00, -0.00, -1.00, 552.3, 601.6)"> </text><text xml:space="preserve" font-family="CooperBlackMS,Cooper Black" font-weight="bold" font-size="80.0" fill="#000000" transform="matrix(1.00, 0.00, -0.00, -1.00, 572.3, 601.6)">a</text><g opacity="0.82"><g><clipPath id="clip0x600001cba280"><path d="M 288.0 234.0 L 691.0 234.0 L 691.0 534.0 L 288.0 534.0 Z M 288.0 234.0 "></path></clipPath><g clip-path="url(#clip0x600001cba280)"><image xlink:href="../../B984B657-368F-4AF6-91B4-E65B4110245C/assets/BD424018917903F6BE2DA5EFF6AE4C4A.png" width="400.00" height="298.00" transform="matrix(1.00, 0.00, -0.00, -1.00, 289.0, 533.0)"></image></g></g></g><text xml:space="preserve" font-family="CooperBlackMS,Cooper Black" font-weight="bold" font-size="80.0" fill="#000000" transform="matrix(1.00, 0.00, -0.00, -1.00, 418.3, 111.0)">o</text><text xml:space="preserve" font-family="CooperBlackMS,Cooper Black" font-weight="bold" font-size="80.0" fill="#000000" transform="matrix(1.00, 0.00, -0.00, -1.00, 466.5, 111.0)">n</text><text xml:space="preserve" font-family="CooperBlackMS,Cooper Black" font-weight="bold" font-size="80.0" fill="#000000" transform="matrix(1.00, 0.00, -0.00, -1.00, 520.1, 111.0)"> </text><text xml:space="preserve" font-family="CooperBlackMS,Cooper Black" font-weight="bold" font-size="80.0" fill="#000000" transform="matrix(1.00, 0.00, -0.00, -1.00, 540.1, 111.0)">i</text><text xml:space="preserve" font-family="CooperBlackMS,Cooper Black" font-weight="bold" font-size="80.0" fill="#000000" transform="matrix(1.00, 0.00, -0.00, -1.00, 568.7, 111.0)">t</text><path d="M 162.0 532.0 L 862.0 532.0 L 862.0 236.0 L 162.0 236.0 Z M 161.8 532.0 " fill="#FEFFFE" fill-opacity="0.47"></path><g><clipPath id="clip0x600001cbd9a0"><path d="M 153.6 227.7 L 870.4 227.7 L 870.4 540.3 L 153.6 540.3 Z M 153.6 227.7 "></path></clipPath><g clip-path="url(#clip0x600001cbd9a0)"><text xml:space="preserve" font-family="CooperBlackMS,Cooper Black" font-weight="bold" font-size="109.0" fill="#0264C0" transform="matrix(1.00, 0.00, -0.00, -1.00, 323.6, 409.0)">l</text><text xml:space="preserve" font-family="CooperBlackMS,Cooper Black" font-weight="bold" font-size="109.0" fill="#0264C0" transform="matrix(1.00, 0.00, -0.00, -1.00, 363.5, 409.0)">i</text><text xml:space="preserve" font-family="CooperBlackMS,Cooper Black" font-weight="bold" font-size="109.0" fill="#0264C0" transform="matrix(1.00, 0.00, -0.00, -1.00, 402.4, 409.0)">c</text><text xml:space="preserve" font-family="CooperBlackMS,Cooper Black" font-weight="bold" font-size="109.0" fill="#0264C0" transform="matrix(1.00, 0.00, -0.00, -1.00, 459.7, 409.0)">e</text><text xml:space="preserve" font-family="CooperBlackMS,Cooper Black" font-weight="bold" font-size="109.0" fill="#0264C0" transform="matrix(1.00, 0.00, -0.00, -1.00, 517.6, 409.0)">n</text><text xml:space="preserve" font-family="CooperBlackMS,Cooper Black" font-weight="bold" font-size="109.0" fill="#0264C0" transform="matrix(1.00, 0.00, -0.00, -1.00, 590.7, 409.0)">s</text><text xml:space="preserve" font-family="CooperBlackMS,Cooper Black" font-weight="bold" font-size="109.0" fill="#0264C0" transform="matrix(1.00, 0.00, -0.00, -1.00, 642.6, 409.0)">e</text><text xml:space="preserve" font-family="CooperBlackMS,Cooper Black" font-weight="bold" font-size="109.0" fill="#0264C0" transform="matrix(1.00, 0.00, -0.00, -1.00, 700.4, 409.0)"> </text><text xml:space="preserve" font-family="CooperBlackMS,Cooper Black" font-weight="bold" font-size="109.0" fill="#0264C0" transform="matrix(1.00, 0.00, -0.00, -1.00, 188.4, 284.0)">(</text><text xml:space="preserve" font-family="CooperBlackMS,Cooper Black" font-weight="bold" font-size="109.0" fill="#0264C0" transform="matrix(1.00, 0.00, -0.00, -1.00, 242.7, 284.0)">o</text><text xml:space="preserve" font-family="CooperBlackMS,Cooper Black" font-weight="bold" font-size="109.0" fill="#0264C0" transform="matrix(1.00, 0.00, -0.00, -1.00, 308.3, 284.0)">r</text><text xml:space="preserve" font-family="CooperBlackMS,Cooper Black" font-weight="bold" font-size="109.0" fill="#0264C0" transform="matrix(1.00, 0.00, -0.00, -1.00, 366.5, 284.0)"> </text><text xml:space="preserve" font-family="CooperBlackMS,Cooper Black" font-weight="bold" font-size="109.0" fill="#0264C0" transform="matrix(1.00, 0.00, -0.00, -1.00, 393.8, 284.0)">w</text><text xml:space="preserve" font-family="CooperBlackMS,Cooper Black" font-weight="bold" font-size="109.0" fill="#0264C0" transform="matrix(1.00, 0.00, -0.00, -1.00, 499.5, 284.0)">a</text><text xml:space="preserve" font-family="CooperBlackMS,Cooper Black" font-weight="bold" font-size="109.0" fill="#0264C0" transform="matrix(1.00, 0.00, -0.00, -1.00, 561.3, 284.0)">i</text><text xml:space="preserve" font-family="CooperBlackMS,Cooper Black" font-weight="bold" font-size="109.0" fill="#0264C0" transform="matrix(1.00, 0.00, -0.00, -1.00, 600.2, 284.0)">v</text><text xml:space="preserve" font-family="CooperBlackMS,Cooper Black" font-weight="bold" font-size="109.0" fill="#0264C0" transform="matrix(1.00, 0.00, -0.00, -1.00, 665.2, 284.0)">e</text><text xml:space="preserve" font-family="CooperBlackMS,Cooper Black" font-weight="bold" font-size="109.0" fill="#0264C0" transform="matrix(1.00, 0.00, -0.00, -1.00, 723.0, 284.0)">r</text><text xml:space="preserve" font-family="CooperBlackMS,Cooper Black" font-weight="bold" font-size="109.0" fill="#0264C0" transform="matrix(1.00, 0.00, -0.00, -1.00, 781.3, 284.0)">)</text></g></g></g></svg>