<?xml version="1.0" encoding="UTF-8" standalone="no"?><svg xmlns="http://www.w3.org/2000/svg" xmlns:xlink="http://www.w3.org/1999/xlink" clip-rule="evenodd" stroke-miterlimit="10" viewBox="0 0 1024 768"><desc>SVG generated by Keynote</desc><defs></defs><g transform="matrix(1.00, 0.00, -0.00, -1.00, 0.0, 768.0)"><path d="M 0.0 768.0 L 1024.0 768.0 L 1024.0 0.0 L 0.0 0.0 Z M 0.0 768.0 " fill="#FEFFFF"></path><text xml:space="preserve" font-family="GillSans,Gill Sans" font-size="64.0" fill="#000000" transform="matrix(1.00, 0.00, -0.00, -1.00, 62.0, 684.8)">“</text><text xml:space="preserve" font-family="GillSans,Gill Sans" font-size="64.0" fill="#000000" transform="matrix(1.00, 0.00, -0.00, -1.00, 89.3, 684.8)">p</text><text xml:space="preserve" font-family="GillSans,Gill Sans" font-size="64.0" fill="#000000" transform="matrix(1.00, 0.00, -0.00, -1.00, 121.3, 684.8)">l</text><text xml:space="preserve" font-family="GillSans,Gill Sans" font-size="64.0" fill="#000000" transform="matrix(1.00, 0.00, -0.00, -1.00, 135.3, 684.8)">a</text><text xml:space="preserve" font-family="GillSans,Gill Sans" font-size="64.0" fill="#000000" transform="matrix(1.00, 0.00, -0.00, -1.00, 160.1, 684.8)">y</text><text xml:space="preserve" font-family="GillSans,Gill Sans" font-size="64.0" fill="#000000" transform="matrix(1.00, 0.00, -0.00, -1.00, 188.1, 684.8)">s</text><text xml:space="preserve" font-family="GillSans,Gill Sans" font-size="64.0" fill="#000000" transform="matrix(1.00, 0.00, -0.00, -1.00, 212.7, 684.8)"> </text><text xml:space="preserve" font-family="GillSans,Gill Sans" font-size="64.0" fill="#000000" transform="matrix(1.00, 0.00, -0.00, -1.00, 230.5, 684.8)">w</text><text xml:space="preserve" font-family="GillSans,Gill Sans" font-size="64.0" fill="#000000" transform="matrix(1.00, 0.00, -0.00, -1.00, 275.3, 684.8)">e</text><text xml:space="preserve" font-family="GillSans,Gill Sans" font-size="64.0" fill="#000000" transform="matrix(1.00, 0.00, -0.00, -1.00, 305.9, 684.8)">l</text><text xml:space="preserve" font-family="GillSans,Gill Sans" font-size="64.0" fill="#000000" transform="matrix(1.00, 0.00, -0.00, -1.00, 320.0, 684.8)">l</text><text xml:space="preserve" font-family="GillSans,Gill Sans" font-size="64.0" fill="#000000" transform="matrix(1.00, 0.00, -0.00, -1.00, 334.0, 684.8)"> </text><text xml:space="preserve" font-family="GillSans,Gill Sans" font-size="64.0" fill="#000000" transform="matrix(1.00, 0.00, -0.00, -1.00, 351.8, 684.8)">w</text><text xml:space="preserve" font-family="GillSans,Gill Sans" font-size="64.0" fill="#000000" transform="matrix(1.00, 0.00, -0.00, -1.00, 397.8, 684.8)">i</text><text xml:space="preserve" font-family="GillSans,Gill Sans" font-size="64.0" fill="#000000" transform="matrix(1.00, 0.00, -0.00, -1.00, 411.9, 684.8)">t</text><text xml:space="preserve" font-family="GillSans,Gill Sans" font-size="64.0" fill="#000000" transform="matrix(1.00, 0.00, -0.00, -1.00, 433.2, 684.8)">h</text><text xml:space="preserve" font-family="GillSans,Gill Sans" font-size="64.0" fill="#000000" transform="matrix(1.00, 0.00, -0.00, -1.00, 465.2, 684.8)"> </text><text xml:space="preserve" font-family="GillSans,Gill Sans" font-size="64.0" fill="#000000" transform="matrix(1.00, 0.00, -0.00, -1.00, 482.9, 684.8)">d</text><text xml:space="preserve" font-family="GillSans,Gill Sans" font-size="64.0" fill="#000000" transform="matrix(1.00, 0.00, -0.00, -1.00, 515.5, 684.8)">e</text><text xml:space="preserve" font-family="GillSans,Gill Sans" font-size="64.0" fill="#000000" transform="matrix(1.00, 0.00, -0.00, -1.00, 546.2, 684.8)">f</text><text xml:space="preserve" font-family="GillSans,Gill Sans" font-size="64.0" fill="#000000" transform="matrix(1.00, 0.00, -0.00, -1.00, 562.2, 684.8)">a</text><text xml:space="preserve" font-family="GillSans,Gill Sans" font-size="64.0" fill="#000000" transform="matrix(1.00, 0.00, -0.00, -1.00, 589.5, 684.8)">u</text><text xml:space="preserve" font-family="GillSans,Gill Sans" font-size="64.0" fill="#000000" transform="matrix(1.00, 0.00, -0.00, -1.00, 621.5, 684.8)">l</text><text xml:space="preserve" font-family="GillSans,Gill Sans" font-size="64.0" fill="#000000" transform="matrix(1.00, 0.00, -0.00, -1.00, 635.5, 684.8)">t</text><text xml:space="preserve" font-family="GillSans,Gill Sans" font-size="64.0" fill="#000000" transform="matrix(1.00, 0.00, -0.00, -1.00, 656.9, 684.8)"> </text><text xml:space="preserve" font-family="GillSans,Gill Sans" font-size="64.0" fill="#000000" transform="matrix(1.00, 0.00, -0.00, -1.00, 674.6, 684.8)">o</text><text xml:space="preserve" font-family="GillSans,Gill Sans" font-size="64.0" fill="#000000" transform="matrix(1.00, 0.00, -0.00, -1.00, 709.9, 684.8)">r</text><text xml:space="preserve" font-family="GillSans,Gill Sans" font-size="64.0" fill="#000000" transform="matrix(1.00, 0.00, -0.00, -1.00, 734.3, 684.8)">d</text><text xml:space="preserve" font-family="GillSans,Gill Sans" font-size="64.0" fill="#000000" transform="matrix(1.00, 0.00, -0.00, -1.00, 766.9, 684.8)">e</text><text xml:space="preserve" font-family="GillSans,Gill Sans" font-size="64.0" fill="#000000" transform="matrix(1.00, 0.00, -0.00, -1.00, 797.6, 684.8)">r</text><text xml:space="preserve" font-family="GillSans,Gill Sans" font-size="64.0" fill="#000000" transform="matrix(1.00, 0.00, -0.00, -1.00, 822.9, 684.8)">i</text><text xml:space="preserve" font-family="GillSans,Gill Sans" font-size="64.0" fill="#000000" transform="matrix(1.00, 0.00, -0.00, -1.00, 837.0, 684.8)">n</text><text xml:space="preserve" font-family="GillSans,Gill Sans" font-size="64.0" fill="#000000" transform="matrix(1.00, 0.00, -0.00, -1.00, 869.0, 684.8)">g</text><text xml:space="preserve" font-family="GillSans,Gill Sans" font-size="64.0" fill="#000000" transform="matrix(1.00, 0.00, -0.00, -1.00, 896.3, 684.8)">”</text><image xlink:href="../../7DB4C4D3-8BBE-4014-931A-9C8FA4C4327D/assets/DD511D99FC78336C85DC8EB96E485080.png" width="1232.00" height="306.00" transform="matrix(0.62, 0.00, -0.00, -0.62, 291.0, 571.0)"></image><text xml:space="preserve" font-family="Courier,Courier" font-size="20.0" fill="#000000" transform="matrix(1.00, 0.00, -0.00, -1.00, 301.0, 302.4)">0</text><text xml:space="preserve" font-family="Courier,Courier" font-size="20.0" fill="#000000" transform="matrix(1.00, 0.00, -0.00, -1.00, 313.0, 302.4)">1</text><text xml:space="preserve" font-family="Courier,Courier" font-size="20.0" fill="#000000" transform="matrix(1.00, 0.00, -0.00, -1.00, 325.0, 302.4)">_</text><text xml:space="preserve" font-family="Courier,Courier" font-size="20.0" fill="#000000" transform="matrix(1.00, 0.00, -0.00, -1.00, 337.0, 302.4)">m</text><text xml:space="preserve" font-family="Courier,Courier" font-size="20.0" fill="#000000" transform="matrix(1.00, 0.00, -0.00, -1.00, 349.0, 302.4)">a</text><text xml:space="preserve" font-family="Courier,Courier" font-size="20.0" fill="#000000" transform="matrix(1.00, 0.00, -0.00, -1.00, 361.0, 302.4)">r</text><text xml:space="preserve" font-family="Courier,Courier" font-size="20.0" fill="#000000" transform="matrix(1.00, 0.00, -0.00, -1.00, 373.0, 302.4)">s</text><text xml:space="preserve" font-family="Courier,Courier" font-size="20.0" fill="#000000" transform="matrix(1.00, 0.00, -0.00, -1.00, 385.0, 302.4)">h</text><text xml:space="preserve" font-family="Courier,Courier" font-size="20.0" fill="#000000" transform="matrix(1.00, 0.00, -0.00, -1.00, 397.0, 302.4)">a</text><text xml:space="preserve" font-family="Courier,Courier" font-size="20.0" fill="#000000" transform="matrix(1.00, 0.00, -0.00, -1.00, 409.0, 302.4)">l</text><text xml:space="preserve" font-family="Courier,Courier" font-size="20.0" fill="#000000" transform="matrix(1.00, 0.00, -0.00, -1.00, 421.0, 302.4)">-</text><text xml:space="preserve" font-family="Courier,Courier" font-size="20.0" fill="#000000" transform="matrix(1.00, 0.00, -0.00, -1.00, 433.0, 302.4)">d</text><text xml:space="preserve" font-family="Courier,Courier" font-size="20.0" fill="#000000" transform="matrix(1.00, 0.00, -0.00, -1.00, 445.0, 302.4)">a</text><text xml:space="preserve" font-family="Courier,Courier" font-size="20.0" fill="#000000" transform="matrix(1.00, 0.00, -0.00, -1.00, 457.1, 302.4)">t</text><text xml:space="preserve" font-family="Courier,Courier" font-size="20.0" fill="#000000" transform="matrix(1.00, 0.00, -0.00, -1.00, 469.1, 302.4)">a</text><text xml:space="preserve" font-family="Courier,Courier" font-size="20.0" fill="#000000" transform="matrix(1.00, 0.00, -0.00, -1.00, 481.1, 302.4)">.</text><text xml:space="preserve" font-family="Courier,Courier" font-size="20.0" fill="#000000" transform="matrix(1.00, 0.00, -0.00, -1.00, 493.1, 302.4)">r</text><text xml:space="preserve" font-family="Courier,Courier" font-size="20.0" fill="#000000" transform="matrix(1.00, 0.00, -0.00, -1.00, 301.0, 278.4)">0</text><text xml:space="preserve" font-family="Courier,Courier" font-size="20.0" fill="#000000" transform="matrix(1.00, 0.00, -0.00, -1.00, 313.0, 278.4)">2</text><text xml:space="preserve" font-family="Courier,Courier" font-size="20.0" fill="#000000" transform="matrix(1.00, 0.00, -0.00, -1.00, 325.0, 278.4)">_</text><text xml:space="preserve" font-family="Courier,Courier" font-size="20.0" fill="#000000" transform="matrix(1.00, 0.00, -0.00, -1.00, 337.0, 278.4)">p</text><text xml:space="preserve" font-family="Courier,Courier" font-size="20.0" fill="#000000" transform="matrix(1.00, 0.00, -0.00, -1.00, 349.0, 278.4)">r</text><text xml:space="preserve" font-family="Courier,Courier" font-size="20.0" fill="#000000" transform="matrix(1.00, 0.00, -0.00, -1.00, 361.0, 278.4)">e</text><text xml:space="preserve" font-family="Courier,Courier" font-size="20.0" fill="#000000" transform="matrix(1.00, 0.00, -0.00, -1.00, 373.0, 278.4)">-</text><text xml:space="preserve" font-family="Courier,Courier" font-size="20.0" fill="#000000" transform="matrix(1.00, 0.00, -0.00, -1.00, 385.0, 278.4)">d</text><text xml:space="preserve" font-family="Courier,Courier" font-size="20.0" fill="#000000" transform="matrix(1.00, 0.00, -0.00, -1.00, 397.0, 278.4)">e</text><text xml:space="preserve" font-family="Courier,Courier" font-size="20.0" fill="#000000" transform="matrix(1.00, 0.00, -0.00, -1.00, 409.0, 278.4)">a</text><text xml:space="preserve" font-family="Courier,Courier" font-size="20.0" fill="#000000" transform="matrix(1.00, 0.00, -0.00, -1.00, 421.0, 278.4)">-</text><text xml:space="preserve" font-family="Courier,Courier" font-size="20.0" fill="#000000" transform="matrix(1.00, 0.00, -0.00, -1.00, 433.0, 278.4)">f</text><text xml:space="preserve" font-family="Courier,Courier" font-size="20.0" fill="#000000" transform="matrix(1.00, 0.00, -0.00, -1.00, 445.0, 278.4)">i</text><text xml:space="preserve" font-family="Courier,Courier" font-size="20.0" fill="#000000" transform="matrix(1.00, 0.00, -0.00, -1.00, 457.1, 278.4)">l</text><text xml:space="preserve" font-family="Courier,Courier" font-size="20.0" fill="#000000" transform="matrix(1.00, 0.00, -0.00, -1.00, 469.1, 278.4)">t</text><text xml:space="preserve" font-family="Courier,Courier" font-size="20.0" fill="#000000" transform="matrix(1.00, 0.00, -0.00, -1.00, 481.1, 278.4)">e</text><text xml:space="preserve" font-family="Courier,Courier" font-size="20.0" fill="#000000" transform="matrix(1.00, 0.00, -0.00, -1.00, 493.1, 278.4)">r</text><text xml:space="preserve" font-family="Courier,Courier" font-size="20.0" fill="#000000" transform="matrix(1.00, 0.00, -0.00, -1.00, 505.1, 278.4)">i</text><text xml:space="preserve" font-family="Courier,Courier" font-size="20.0" fill="#000000" transform="matrix(1.00, 0.00, -0.00, -1.00, 517.1, 278.4)">n</text><text xml:space="preserve" font-family="Courier,Courier" font-size="20.0" fill="#000000" transform="matrix(1.00, 0.00, -0.00, -1.00, 529.1, 278.4)">g</text><text xml:space="preserve" font-family="Courier,Courier" font-size="20.0" fill="#000000" transform="matrix(1.00, 0.00, -0.00, -1.00, 541.1, 278.4)">.</text><text xml:space="preserve" font-family="Courier,Courier" font-size="20.0" fill="#000000" transform="matrix(1.00, 0.00, -0.00, -1.00, 553.1, 278.4)">r</text><text xml:space="preserve" font-family="Courier,Courier" font-size="20.0" fill="#000000" transform="matrix(1.00, 0.00, -0.00, -1.00, 301.0, 254.4)">0</text><text xml:space="preserve" font-family="Courier,Courier" font-size="20.0" fill="#000000" transform="matrix(1.00, 0.00, -0.00, -1.00, 313.0, 254.4)">3</text><text xml:space="preserve" font-family="Courier,Courier" font-size="20.0" fill="#000000" transform="matrix(1.00, 0.00, -0.00, -1.00, 325.0, 254.4)">_</text><text xml:space="preserve" font-family="Courier,Courier" font-size="20.0" fill="#000000" transform="matrix(1.00, 0.00, -0.00, -1.00, 337.0, 254.4)">d</text><text xml:space="preserve" font-family="Courier,Courier" font-size="20.0" fill="#000000" transform="matrix(1.00, 0.00, -0.00, -1.00, 349.0, 254.4)">e</text><text xml:space="preserve" font-family="Courier,Courier" font-size="20.0" fill="#000000" transform="matrix(1.00, 0.00, -0.00, -1.00, 361.0, 254.4)">a</text><text xml:space="preserve" font-family="Courier,Courier" font-size="20.0" fill="#000000" transform="matrix(1.00, 0.00, -0.00, -1.00, 373.0, 254.4)">-</text><text xml:space="preserve" font-family="Courier,Courier" font-size="20.0" fill="#000000" transform="matrix(1.00, 0.00, -0.00, -1.00, 385.0, 254.4)">w</text><text xml:space="preserve" font-family="Courier,Courier" font-size="20.0" fill="#000000" transform="matrix(1.00, 0.00, -0.00, -1.00, 397.0, 254.4)">i</text><text xml:space="preserve" font-family="Courier,Courier" font-size="20.0" fill="#000000" transform="matrix(1.00, 0.00, -0.00, -1.00, 409.0, 254.4)">t</text><text xml:space="preserve" font-family="Courier,Courier" font-size="20.0" fill="#000000" transform="matrix(1.00, 0.00, -0.00, -1.00, 421.0, 254.4)">h</text><text xml:space="preserve" font-family="Courier,Courier" font-size="20.0" fill="#000000" transform="matrix(1.00, 0.00, -0.00, -1.00, 433.0, 254.4)">-</text><text xml:space="preserve" font-family="Courier,Courier" font-size="20.0" fill="#000000" transform="matrix(1.00, 0.00, -0.00, -1.00, 445.0, 254.4)">l</text><text xml:space="preserve" font-family="Courier,Courier" font-size="20.0" fill="#000000" transform="matrix(1.00, 0.00, -0.00, -1.00, 457.1, 254.4)">i</text><text xml:space="preserve" font-family="Courier,Courier" font-size="20.0" fill="#000000" transform="matrix(1.00, 0.00, -0.00, -1.00, 469.1, 254.4)">m</text><text xml:space="preserve" font-family="Courier,Courier" font-size="20.0" fill="#000000" transform="matrix(1.00, 0.00, -0.00, -1.00, 481.1, 254.4)">m</text><text xml:space="preserve" font-family="Courier,Courier" font-size="20.0" fill="#000000" transform="matrix(1.00, 0.00, -0.00, -1.00, 493.1, 254.4)">a</text><text xml:space="preserve" font-family="Courier,Courier" font-size="20.0" fill="#000000" transform="matrix(1.00, 0.00, -0.00, -1.00, 505.1, 254.4)">-</text><text xml:space="preserve" font-family="Courier,Courier" font-size="20.0" fill="#000000" transform="matrix(1.00, 0.00, -0.00, -1.00, 517.1, 254.4)">v</text><text xml:space="preserve" font-family="Courier,Courier" font-size="20.0" fill="#000000" transform="matrix(1.00, 0.00, -0.00, -1.00, 529.1, 254.4)">o</text><text xml:space="preserve" font-family="Courier,Courier" font-size="20.0" fill="#000000" transform="matrix(1.00, 0.00, -0.00, -1.00, 541.1, 254.4)">o</text><text xml:space="preserve" font-family="Courier,Courier" font-size="20.0" fill="#000000" transform="matrix(1.00, 0.00, -0.00, -1.00, 553.1, 254.4)">m</text><text xml:space="preserve" font-family="Courier,Courier" font-size="20.0" fill="#000000" transform="matrix(1.00, 0.00, -0.00, -1.00, 565.1, 254.4)">.</text><text xml:space="preserve" font-family="Courier,Courier" font-size="20.0" fill="#000000" transform="matrix(1.00, 0.00, -0.00, -1.00, 577.1, 254.4)">r</text><text xml:space="preserve" font-family="Courier,Courier" font-size="20.0" fill="#000000" transform="matrix(1.00, 0.00, -0.00, -1.00, 301.0, 230.4)">0</text><text xml:space="preserve" font-family="Courier,Courier" font-size="20.0" fill="#000000" transform="matrix(1.00, 0.00, -0.00, -1.00, 313.0, 230.4)">4</text><text xml:space="preserve" font-family="Courier,Courier" font-size="20.0" fill="#000000" transform="matrix(1.00, 0.00, -0.00, -1.00, 325.0, 230.4)">_</text><text xml:space="preserve" font-family="Courier,Courier" font-size="20.0" fill="#000000" transform="matrix(1.00, 0.00, -0.00, -1.00, 337.0, 230.4)">e</text><text xml:space="preserve" font-family="Courier,Courier" font-size="20.0" fill="#000000" transform="matrix(1.00, 0.00, -0.00, -1.00, 349.0, 230.4)">x</text><text xml:space="preserve" font-family="Courier,Courier" font-size="20.0" fill="#000000" transform="matrix(1.00, 0.00, -0.00, -1.00, 361.0, 230.4)">p</text><text xml:space="preserve" font-family="Courier,Courier" font-size="20.0" fill="#000000" transform="matrix(1.00, 0.00, -0.00, -1.00, 373.0, 230.4)">l</text><text xml:space="preserve" font-family="Courier,Courier" font-size="20.0" fill="#000000" transform="matrix(1.00, 0.00, -0.00, -1.00, 385.0, 230.4)">o</text><text xml:space="preserve" font-family="Courier,Courier" font-size="20.0" fill="#000000" transform="matrix(1.00, 0.00, -0.00, -1.00, 397.0, 230.4)">r</text><text xml:space="preserve" font-family="Courier,Courier" font-size="20.0" fill="#000000" transform="matrix(1.00, 0.00, -0.00, -1.00, 409.0, 230.4)">e</text><text xml:space="preserve" font-family="Courier,Courier" font-size="20.0" fill="#000000" transform="matrix(1.00, 0.00, -0.00, -1.00, 421.0, 230.4)">-</text><text xml:space="preserve" font-family="Courier,Courier" font-size="20.0" fill="#000000" transform="matrix(1.00, 0.00, -0.00, -1.00, 433.0, 230.4)">d</text><text xml:space="preserve" font-family="Courier,Courier" font-size="20.0" fill="#000000" transform="matrix(1.00, 0.00, -0.00, -1.00, 445.0, 230.4)">e</text><text xml:space="preserve" font-family="Courier,Courier" font-size="20.0" fill="#000000" transform="matrix(1.00, 0.00, -0.00, -1.00, 457.1, 230.4)">a</text><text xml:space="preserve" font-family="Courier,Courier" font-size="20.0" fill="#000000" transform="matrix(1.00, 0.00, -0.00, -1.00, 469.1, 230.4)">-</text><text xml:space="preserve" font-family="Courier,Courier" font-size="20.0" fill="#000000" transform="matrix(1.00, 0.00, -0.00, -1.00, 481.1, 230.4)">r</text><text xml:space="preserve" font-family="Courier,Courier" font-size="20.0" fill="#000000" transform="matrix(1.00, 0.00, -0.00, -1.00, 493.1, 230.4)">e</text><text xml:space="preserve" font-family="Courier,Courier" font-size="20.0" fill="#000000" transform="matrix(1.00, 0.00, -0.00, -1.00, 505.1, 230.4)">s</text><text xml:space="preserve" font-family="Courier,Courier" font-size="20.0" fill="#000000" transform="matrix(1.00, 0.00, -0.00, -1.00, 517.1, 230.4)">u</text><text xml:space="preserve" font-family="Courier,Courier" font-size="20.0" fill="#000000" transform="matrix(1.00, 0.00, -0.00, -1.00, 529.1, 230.4)">l</text><text xml:space="preserve" font-family="Courier,Courier" font-size="20.0" fill="#000000" transform="matrix(1.00, 0.00, -0.00, -1.00, 541.1, 230.4)">t</text><text xml:space="preserve" font-family="Courier,Courier" font-size="20.0" fill="#000000" transform="matrix(1.00, 0.00, -0.00, -1.00, 553.1, 230.4)">s</text><text xml:space="preserve" font-family="Courier,Courier" font-size="20.0" fill="#000000" transform="matrix(1.00, 0.00, -0.00, -1.00, 565.1, 230.4)">.</text><text xml:space="preserve" font-family="Courier,Courier" font-size="20.0" fill="#000000" transform="matrix(1.00, 0.00, -0.00, -1.00, 577.1, 230.4)">r</text><text xml:space="preserve" font-family="Courier,Courier" font-size="20.0" fill="#000000" transform="matrix(1.00, 0.00, -0.00, -1.00, 301.0, 206.4)">9</text><text xml:space="preserve" font-family="Courier,Courier" font-size="20.0" fill="#000000" transform="matrix(1.00, 0.00, -0.00, -1.00, 313.0, 206.4)">0</text><text xml:space="preserve" font-family="Courier,Courier" font-size="20.0" fill="#000000" transform="matrix(1.00, 0.00, -0.00, -1.00, 325.0, 206.4)">_</text><text xml:space="preserve" font-family="Courier,Courier" font-size="20.0" fill="#000000" transform="matrix(1.00, 0.00, -0.00, -1.00, 337.0, 206.4)">l</text><text xml:space="preserve" font-family="Courier,Courier" font-size="20.0" fill="#000000" transform="matrix(1.00, 0.00, -0.00, -1.00, 349.0, 206.4)">i</text><text xml:space="preserve" font-family="Courier,Courier" font-size="20.0" fill="#000000" transform="matrix(1.00, 0.00, -0.00, -1.00, 361.0, 206.4)">m</text><text xml:space="preserve" font-family="Courier,Courier" font-size="20.0" fill="#000000" transform="matrix(1.00, 0.00, -0.00, -1.00, 373.0, 206.4)">m</text><text xml:space="preserve" font-family="Courier,Courier" font-size="20.0" fill="#000000" transform="matrix(1.00, 0.00, -0.00, -1.00, 385.0, 206.4)">a</text><text xml:space="preserve" font-family="Courier,Courier" font-size="20.0" fill="#000000" transform="matrix(1.00, 0.00, -0.00, -1.00, 397.0, 206.4)">-</text><text xml:space="preserve" font-family="Courier,Courier" font-size="20.0" fill="#000000" transform="matrix(1.00, 0.00, -0.00, -1.00, 409.0, 206.4)">m</text><text xml:space="preserve" font-family="Courier,Courier" font-size="20.0" fill="#000000" transform="matrix(1.00, 0.00, -0.00, -1.00, 421.0, 206.4)">o</text><text xml:space="preserve" font-family="Courier,Courier" font-size="20.0" fill="#000000" transform="matrix(1.00, 0.00, -0.00, -1.00, 433.0, 206.4)">d</text><text xml:space="preserve" font-family="Courier,Courier" font-size="20.0" fill="#000000" transform="matrix(1.00, 0.00, -0.00, -1.00, 445.0, 206.4)">e</text><text xml:space="preserve" font-family="Courier,Courier" font-size="20.0" fill="#000000" transform="matrix(1.00, 0.00, -0.00, -1.00, 457.1, 206.4)">l</text><text xml:space="preserve" font-family="Courier,Courier" font-size="20.0" fill="#000000" transform="matrix(1.00, 0.00, -0.00, -1.00, 469.1, 206.4)">-</text><text xml:space="preserve" font-family="Courier,Courier" font-size="20.0" fill="#000000" transform="matrix(1.00, 0.00, -0.00, -1.00, 481.1, 206.4)">t</text><text xml:space="preserve" font-family="Courier,Courier" font-size="20.0" fill="#000000" transform="matrix(1.00, 0.00, -0.00, -1.00, 493.1, 206.4)">e</text><text xml:space="preserve" font-family="Courier,Courier" font-size="20.0" fill="#000000" transform="matrix(1.00, 0.00, -0.00, -1.00, 505.1, 206.4)">r</text><text xml:space="preserve" font-family="Courier,Courier" font-size="20.0" fill="#000000" transform="matrix(1.00, 0.00, -0.00, -1.00, 517.1, 206.4)">m</text><text xml:space="preserve" font-family="Courier,Courier" font-size="20.0" fill="#000000" transform="matrix(1.00, 0.00, -0.00, -1.00, 529.1, 206.4)">-</text><text xml:space="preserve" font-family="Courier,Courier" font-size="20.0" fill="#000000" transform="matrix(1.00, 0.00, -0.00, -1.00, 541.1, 206.4)">n</text><text xml:space="preserve" font-family="Courier,Courier" font-size="20.0" fill="#000000" transform="matrix(1.00, 0.00, -0.00, -1.00, 553.1, 206.4)">a</text><text xml:space="preserve" font-family="Courier,Courier" font-size="20.0" fill="#000000" transform="matrix(1.00, 0.00, -0.00, -1.00, 565.1, 206.4)">m</text><text xml:space="preserve" font-family="Courier,Courier" font-size="20.0" fill="#000000" transform="matrix(1.00, 0.00, -0.00, -1.00, 577.1, 206.4)">e</text><text xml:space="preserve" font-family="Courier,Courier" font-size="20.0" fill="#000000" transform="matrix(1.00, 0.00, -0.00, -1.00, 589.1, 206.4)">-</text><text xml:space="preserve" font-family="Courier,Courier" font-size="20.0" fill="#000000" transform="matrix(1.00, 0.00, -0.00, -1.00, 601.1, 206.4)">f</text><text xml:space="preserve" font-family="Courier,Courier" font-size="20.0" fill="#000000" transform="matrix(1.00, 0.00, -0.00, -1.00, 613.1, 206.4)">i</text><text xml:space="preserve" font-family="Courier,Courier" font-size="20.0" fill="#000000" transform="matrix(1.00, 0.00, -0.00, -1.00, 625.1, 206.4)">a</text><text xml:space="preserve" font-family="Courier,Courier" font-size="20.0" fill="#000000" transform="matrix(1.00, 0.00, -0.00, -1.00, 637.1, 206.4)">s</text><text xml:space="preserve" font-family="Courier,Courier" font-size="20.0" fill="#000000" transform="matrix(1.00, 0.00, -0.00, -1.00, 649.1, 206.4)">c</text><text xml:space="preserve" font-family="Courier,Courier" font-size="20.0" fill="#000000" transform="matrix(1.00, 0.00, -0.00, -1.00, 661.1, 206.4)">o</text><text xml:space="preserve" font-family="Courier,Courier" font-size="20.0" fill="#000000" transform="matrix(1.00, 0.00, -0.00, -1.00, 673.1, 206.4)">.</text><text xml:space="preserve" font-family="Courier,Courier" font-size="20.0" fill="#000000" transform="matrix(1.00, 0.00, -0.00, -1.00, 685.1, 206.4)">r</text><text xml:space="preserve" font-family="Courier,Courier" font-size="20.0" fill="#000000" transform="matrix(1.00, 0.00, -0.00, -1.00, 301.0, 182.4)">h</text><text xml:space="preserve" font-family="Courier,Courier" font-size="20.0" fill="#000000" transform="matrix(1.00, 0.00, -0.00, -1.00, 313.0, 182.4)">e</text><text xml:space="preserve" font-family="Courier,Courier" font-size="20.0" fill="#000000" transform="matrix(1.00, 0.00, -0.00, -1.00, 325.0, 182.4)">l</text><text xml:space="preserve" font-family="Courier,Courier" font-size="20.0" fill="#000000" transform="matrix(1.00, 0.00, -0.00, -1.00, 337.0, 182.4)">p</text><text xml:space="preserve" font-family="Courier,Courier" font-size="20.0" fill="#000000" transform="matrix(1.00, 0.00, -0.00, -1.00, 349.0, 182.4)">e</text><text xml:space="preserve" font-family="Courier,Courier" font-size="20.0" fill="#000000" transform="matrix(1.00, 0.00, -0.00, -1.00, 361.0, 182.4)">r</text><text xml:space="preserve" font-family="Courier,Courier" font-size="20.0" fill="#000000" transform="matrix(1.00, 0.00, -0.00, -1.00, 373.0, 182.4)">0</text><text xml:space="preserve" font-family="Courier,Courier" font-size="20.0" fill="#000000" transform="matrix(1.00, 0.00, -0.00, -1.00, 385.0, 182.4)">1</text><text xml:space="preserve" font-family="Courier,Courier" font-size="20.0" fill="#000000" transform="matrix(1.00, 0.00, -0.00, -1.00, 397.0, 182.4)">_</text><text xml:space="preserve" font-family="Courier,Courier" font-size="20.0" fill="#000000" transform="matrix(1.00, 0.00, -0.00, -1.00, 409.0, 182.4)">l</text><text xml:space="preserve" font-family="Courier,Courier" font-size="20.0" fill="#000000" transform="matrix(1.00, 0.00, -0.00, -1.00, 421.0, 182.4)">o</text><text xml:space="preserve" font-family="Courier,Courier" font-size="20.0" fill="#000000" transform="matrix(1.00, 0.00, -0.00, -1.00, 433.0, 182.4)">a</text><text xml:space="preserve" font-family="Courier,Courier" font-size="20.0" fill="#000000" transform="matrix(1.00, 0.00, -0.00, -1.00, 445.0, 182.4)">d</text><text xml:space="preserve" font-family="Courier,Courier" font-size="20.0" fill="#000000" transform="matrix(1.00, 0.00, -0.00, -1.00, 457.1, 182.4)">-</text><text xml:space="preserve" font-family="Courier,Courier" font-size="20.0" fill="#000000" transform="matrix(1.00, 0.00, -0.00, -1.00, 469.1, 182.4)">c</text><text xml:space="preserve" font-family="Courier,Courier" font-size="20.0" fill="#000000" transform="matrix(1.00, 0.00, -0.00, -1.00, 481.1, 182.4)">o</text><text xml:space="preserve" font-family="Courier,Courier" font-size="20.0" fill="#000000" transform="matrix(1.00, 0.00, -0.00, -1.00, 493.1, 182.4)">u</text><text xml:space="preserve" font-family="Courier,Courier" font-size="20.0" fill="#000000" transform="matrix(1.00, 0.00, -0.00, -1.00, 505.1, 182.4)">n</text><text xml:space="preserve" font-family="Courier,Courier" font-size="20.0" fill="#000000" transform="matrix(1.00, 0.00, -0.00, -1.00, 517.1, 182.4)">t</text><text xml:space="preserve" font-family="Courier,Courier" font-size="20.0" fill="#000000" transform="matrix(1.00, 0.00, -0.00, -1.00, 529.1, 182.4)">s</text><text xml:space="preserve" font-family="Courier,Courier" font-size="20.0" fill="#000000" transform="matrix(1.00, 0.00, -0.00, -1.00, 541.1, 182.4)">.</text><text xml:space="preserve" font-family="Courier,Courier" font-size="20.0" fill="#000000" transform="matrix(1.00, 0.00, -0.00, -1.00, 553.1, 182.4)">r</text><text xml:space="preserve" font-family="Courier,Courier" font-size="20.0" fill="#000000" transform="matrix(1.00, 0.00, -0.00, -1.00, 301.0, 158.4)">h</text><text xml:space="preserve" font-family="Courier,Courier" font-size="20.0" fill="#000000" transform="matrix(1.00, 0.00, -0.00, -1.00, 313.0, 158.4)">e</text><text xml:space="preserve" font-family="Courier,Courier" font-size="20.0" fill="#000000" transform="matrix(1.00, 0.00, -0.00, -1.00, 325.0, 158.4)">l</text><text xml:space="preserve" font-family="Courier,Courier" font-size="20.0" fill="#000000" transform="matrix(1.00, 0.00, -0.00, -1.00, 337.0, 158.4)">p</text><text xml:space="preserve" font-family="Courier,Courier" font-size="20.0" fill="#000000" transform="matrix(1.00, 0.00, -0.00, -1.00, 349.0, 158.4)">e</text><text xml:space="preserve" font-family="Courier,Courier" font-size="20.0" fill="#000000" transform="matrix(1.00, 0.00, -0.00, -1.00, 361.0, 158.4)">r</text><text xml:space="preserve" font-family="Courier,Courier" font-size="20.0" fill="#000000" transform="matrix(1.00, 0.00, -0.00, -1.00, 373.0, 158.4)">0</text><text xml:space="preserve" font-family="Courier,Courier" font-size="20.0" fill="#000000" transform="matrix(1.00, 0.00, -0.00, -1.00, 385.0, 158.4)">2</text><text xml:space="preserve" font-family="Courier,Courier" font-size="20.0" fill="#000000" transform="matrix(1.00, 0.00, -0.00, -1.00, 397.0, 158.4)">_</text><text xml:space="preserve" font-family="Courier,Courier" font-size="20.0" fill="#000000" transform="matrix(1.00, 0.00, -0.00, -1.00, 409.0, 158.4)">l</text><text xml:space="preserve" font-family="Courier,Courier" font-size="20.0" fill="#000000" transform="matrix(1.00, 0.00, -0.00, -1.00, 421.0, 158.4)">o</text><text xml:space="preserve" font-family="Courier,Courier" font-size="20.0" fill="#000000" transform="matrix(1.00, 0.00, -0.00, -1.00, 433.0, 158.4)">a</text><text xml:space="preserve" font-family="Courier,Courier" font-size="20.0" fill="#000000" transform="matrix(1.00, 0.00, -0.00, -1.00, 445.0, 158.4)">d</text><text xml:space="preserve" font-family="Courier,Courier" font-size="20.0" fill="#000000" transform="matrix(1.00, 0.00, -0.00, -1.00, 457.1, 158.4)">-</text><text xml:space="preserve" font-family="Courier,Courier" font-size="20.0" fill="#000000" transform="matrix(1.00, 0.00, -0.00, -1.00, 469.1, 158.4)">e</text><text xml:space="preserve" font-family="Courier,Courier" font-size="20.0" fill="#000000" transform="matrix(1.00, 0.00, -0.00, -1.00, 481.1, 158.4)">x</text><text xml:space="preserve" font-family="Courier,Courier" font-size="20.0" fill="#000000" transform="matrix(1.00, 0.00, -0.00, -1.00, 493.1, 158.4)">p</text><text xml:space="preserve" font-family="Courier,Courier" font-size="20.0" fill="#000000" transform="matrix(1.00, 0.00, -0.00, -1.00, 505.1, 158.4)">-</text><text xml:space="preserve" font-family="Courier,Courier" font-size="20.0" fill="#000000" transform="matrix(1.00, 0.00, -0.00, -1.00, 517.1, 158.4)">d</text><text xml:space="preserve" font-family="Courier,Courier" font-size="20.0" fill="#000000" transform="matrix(1.00, 0.00, -0.00, -1.00, 529.1, 158.4)">e</text><text xml:space="preserve" font-family="Courier,Courier" font-size="20.0" fill="#000000" transform="matrix(1.00, 0.00, -0.00, -1.00, 541.1, 158.4)">s</text><text xml:space="preserve" font-family="Courier,Courier" font-size="20.0" fill="#000000" transform="matrix(1.00, 0.00, -0.00, -1.00, 553.1, 158.4)">.</text><text xml:space="preserve" font-family="Courier,Courier" font-size="20.0" fill="#000000" transform="matrix(1.00, 0.00, -0.00, -1.00, 565.1, 158.4)">r</text><text xml:space="preserve" font-family="Courier,Courier" font-size="20.0" fill="#000000" transform="matrix(1.00, 0.00, -0.00, -1.00, 301.0, 134.4)">h</text><text xml:space="preserve" font-family="Courier,Courier" font-size="20.0" fill="#000000" transform="matrix(1.00, 0.00, -0.00, -1.00, 313.0, 134.4)">e</text><text xml:space="preserve" font-family="Courier,Courier" font-size="20.0" fill="#000000" transform="matrix(1.00, 0.00, -0.00, -1.00, 325.0, 134.4)">l</text><text xml:space="preserve" font-family="Courier,Courier" font-size="20.0" fill="#000000" transform="matrix(1.00, 0.00, -0.00, -1.00, 337.0, 134.4)">p</text><text xml:space="preserve" font-family="Courier,Courier" font-size="20.0" fill="#000000" transform="matrix(1.00, 0.00, -0.00, -1.00, 349.0, 134.4)">e</text><text xml:space="preserve" font-family="Courier,Courier" font-size="20.0" fill="#000000" transform="matrix(1.00, 0.00, -0.00, -1.00, 361.0, 134.4)">r</text><text xml:space="preserve" font-family="Courier,Courier" font-size="20.0" fill="#000000" transform="matrix(1.00, 0.00, -0.00, -1.00, 373.0, 134.4)">0</text><text xml:space="preserve" font-family="Courier,Courier" font-size="20.0" fill="#000000" transform="matrix(1.00, 0.00, -0.00, -1.00, 385.0, 134.4)">3</text><text xml:space="preserve" font-family="Courier,Courier" font-size="20.0" fill="#000000" transform="matrix(1.00, 0.00, -0.00, -1.00, 397.0, 134.4)">_</text><text xml:space="preserve" font-family="Courier,Courier" font-size="20.0" fill="#000000" transform="matrix(1.00, 0.00, -0.00, -1.00, 409.0, 134.4)">l</text><text xml:space="preserve" font-family="Courier,Courier" font-size="20.0" fill="#000000" transform="matrix(1.00, 0.00, -0.00, -1.00, 421.0, 134.4)">o</text><text xml:space="preserve" font-family="Courier,Courier" font-size="20.0" fill="#000000" transform="matrix(1.00, 0.00, -0.00, -1.00, 433.0, 134.4)">a</text><text xml:space="preserve" font-family="Courier,Courier" font-size="20.0" fill="#000000" transform="matrix(1.00, 0.00, -0.00, -1.00, 445.0, 134.4)">d</text><text xml:space="preserve" font-family="Courier,Courier" font-size="20.0" fill="#000000" transform="matrix(1.00, 0.00, -0.00, -1.00, 457.1, 134.4)">-</text><text xml:space="preserve" font-family="Courier,Courier" font-size="20.0" fill="#000000" transform="matrix(1.00, 0.00, -0.00, -1.00, 469.1, 134.4)">f</text><text xml:space="preserve" font-family="Courier,Courier" font-size="20.0" fill="#000000" transform="matrix(1.00, 0.00, -0.00, -1.00, 481.1, 134.4)">o</text><text xml:space="preserve" font-family="Courier,Courier" font-size="20.0" fill="#000000" transform="matrix(1.00, 0.00, -0.00, -1.00, 493.1, 134.4)">c</text><text xml:space="preserve" font-family="Courier,Courier" font-size="20.0" fill="#000000" transform="matrix(1.00, 0.00, -0.00, -1.00, 505.1, 134.4)">u</text><text xml:space="preserve" font-family="Courier,Courier" font-size="20.0" fill="#000000" transform="matrix(1.00, 0.00, -0.00, -1.00, 517.1, 134.4)">s</text><text xml:space="preserve" font-family="Courier,Courier" font-size="20.0" fill="#000000" transform="matrix(1.00, 0.00, -0.00, -1.00, 529.1, 134.4)">-</text><text xml:space="preserve" font-family="Courier,Courier" font-size="20.0" fill="#000000" transform="matrix(1.00, 0.00, -0.00, -1.00, 541.1, 134.4)">s</text><text xml:space="preserve" font-family="Courier,Courier" font-size="20.0" fill="#000000" transform="matrix(1.00, 0.00, -0.00, -1.00, 553.1, 134.4)">t</text><text xml:space="preserve" font-family="Courier,Courier" font-size="20.0" fill="#000000" transform="matrix(1.00, 0.00, -0.00, -1.00, 565.1, 134.4)">a</text><text xml:space="preserve" font-family="Courier,Courier" font-size="20.0" fill="#000000" transform="matrix(1.00, 0.00, -0.00, -1.00, 577.1, 134.4)">t</text><text xml:space="preserve" font-family="Courier,Courier" font-size="20.0" fill="#000000" transform="matrix(1.00, 0.00, -0.00, -1.00, 589.1, 134.4)">i</text><text xml:space="preserve" font-family="Courier,Courier" font-size="20.0" fill="#000000" transform="matrix(1.00, 0.00, -0.00, -1.00, 601.1, 134.4)">n</text><text xml:space="preserve" font-family="Courier,Courier" font-size="20.0" fill="#000000" transform="matrix(1.00, 0.00, -0.00, -1.00, 613.1, 134.4)">f</text><text xml:space="preserve" font-family="Courier,Courier" font-size="20.0" fill="#000000" transform="matrix(1.00, 0.00, -0.00, -1.00, 625.1, 134.4)">.</text><text xml:space="preserve" font-family="Courier,Courier" font-size="20.0" fill="#000000" transform="matrix(1.00, 0.00, -0.00, -1.00, 637.1, 134.4)">r</text><text xml:space="preserve" font-family="Courier,Courier" font-size="20.0" fill="#000000" transform="matrix(1.00, 0.00, -0.00, -1.00, 301.0, 110.4)">h</text><text xml:space="preserve" font-family="Courier,Courier" font-size="20.0" fill="#000000" transform="matrix(1.00, 0.00, -0.00, -1.00, 313.0, 110.4)">e</text><text xml:space="preserve" font-family="Courier,Courier" font-size="20.0" fill="#000000" transform="matrix(1.00, 0.00, -0.00, -1.00, 325.0, 110.4)">l</text><text xml:space="preserve" font-family="Courier,Courier" font-size="20.0" fill="#000000" transform="matrix(1.00, 0.00, -0.00, -1.00, 337.0, 110.4)">p</text><text xml:space="preserve" font-family="Courier,Courier" font-size="20.0" fill="#000000" transform="matrix(1.00, 0.00, -0.00, -1.00, 349.0, 110.4)">e</text><text xml:space="preserve" font-family="Courier,Courier" font-size="20.0" fill="#000000" transform="matrix(1.00, 0.00, -0.00, -1.00, 361.0, 110.4)">r</text><text xml:space="preserve" font-family="Courier,Courier" font-size="20.0" fill="#000000" transform="matrix(1.00, 0.00, -0.00, -1.00, 373.0, 110.4)">0</text><text xml:space="preserve" font-family="Courier,Courier" font-size="20.0" fill="#000000" transform="matrix(1.00, 0.00, -0.00, -1.00, 385.0, 110.4)">4</text><text xml:space="preserve" font-family="Courier,Courier" font-size="20.0" fill="#000000" transform="matrix(1.00, 0.00, -0.00, -1.00, 397.0, 110.4)">_</text><text xml:space="preserve" font-family="Courier,Courier" font-size="20.0" fill="#000000" transform="matrix(1.00, 0.00, -0.00, -1.00, 409.0, 110.4)">e</text><text xml:space="preserve" font-family="Courier,Courier" font-size="20.0" fill="#000000" transform="matrix(1.00, 0.00, -0.00, -1.00, 421.0, 110.4)">x</text><text xml:space="preserve" font-family="Courier,Courier" font-size="20.0" fill="#000000" transform="matrix(1.00, 0.00, -0.00, -1.00, 433.0, 110.4)">t</text><text xml:space="preserve" font-family="Courier,Courier" font-size="20.0" fill="#000000" transform="matrix(1.00, 0.00, -0.00, -1.00, 445.0, 110.4)">r</text><text xml:space="preserve" font-family="Courier,Courier" font-size="20.0" fill="#000000" transform="matrix(1.00, 0.00, -0.00, -1.00, 457.1, 110.4)">a</text><text xml:space="preserve" font-family="Courier,Courier" font-size="20.0" fill="#000000" transform="matrix(1.00, 0.00, -0.00, -1.00, 469.1, 110.4)">c</text><text xml:space="preserve" font-family="Courier,Courier" font-size="20.0" fill="#000000" transform="matrix(1.00, 0.00, -0.00, -1.00, 481.1, 110.4)">t</text><text xml:space="preserve" font-family="Courier,Courier" font-size="20.0" fill="#000000" transform="matrix(1.00, 0.00, -0.00, -1.00, 493.1, 110.4)">-</text><text xml:space="preserve" font-family="Courier,Courier" font-size="20.0" fill="#000000" transform="matrix(1.00, 0.00, -0.00, -1.00, 505.1, 110.4)">a</text><text xml:space="preserve" font-family="Courier,Courier" font-size="20.0" fill="#000000" transform="matrix(1.00, 0.00, -0.00, -1.00, 517.1, 110.4)">n</text><text xml:space="preserve" font-family="Courier,Courier" font-size="20.0" fill="#000000" transform="matrix(1.00, 0.00, -0.00, -1.00, 529.1, 110.4)">d</text><text xml:space="preserve" font-family="Courier,Courier" font-size="20.0" fill="#000000" transform="matrix(1.00, 0.00, -0.00, -1.00, 541.1, 110.4)">-</text><text xml:space="preserve" font-family="Courier,Courier" font-size="20.0" fill="#000000" transform="matrix(1.00, 0.00, -0.00, -1.00, 553.1, 110.4)">t</text><text xml:space="preserve" font-family="Courier,Courier" font-size="20.0" fill="#000000" transform="matrix(1.00, 0.00, -0.00, -1.00, 565.1, 110.4)">i</text><text xml:space="preserve" font-family="Courier,Courier" font-size="20.0" fill="#000000" transform="matrix(1.00, 0.00, -0.00, -1.00, 577.1, 110.4)">d</text><text xml:space="preserve" font-family="Courier,Courier" font-size="20.0" fill="#000000" transform="matrix(1.00, 0.00, -0.00, -1.00, 589.1, 110.4)">y</text><text xml:space="preserve" font-family="Courier,Courier" font-size="20.0" fill="#000000" transform="matrix(1.00, 0.00, -0.00, -1.00, 601.1, 110.4)">.</text><text xml:space="preserve" font-family="Courier,Courier" font-size="20.0" fill="#000000" transform="matrix(1.00, 0.00, -0.00, -1.00, 613.1, 110.4)">r</text><text xml:space="preserve" font-family="GillSans,Gill Sans" font-size="42.0" fill="#000000" transform="matrix(1.00, 0.00, -0.00, -1.00, 46.0, 486.2)">c</text><text xml:space="preserve" font-family="GillSans,Gill Sans" font-size="42.0" fill="#000000" transform="matrix(1.00, 0.00, -0.00, -1.00, 64.4, 486.2)">h</text><text xml:space="preserve" font-family="GillSans,Gill Sans" font-size="42.0" fill="#000000" transform="matrix(1.00, 0.00, -0.00, -1.00, 85.4, 486.2)">r</text><text xml:space="preserve" font-family="GillSans,Gill Sans" font-size="42.0" fill="#000000" transform="matrix(1.00, 0.00, -0.00, -1.00, 101.0, 486.2)">o</text><text xml:space="preserve" font-family="GillSans,Gill Sans" font-size="42.0" fill="#000000" transform="matrix(1.00, 0.00, -0.00, -1.00, 124.1, 486.2)">n</text><text xml:space="preserve" font-family="GillSans,Gill Sans" font-size="42.0" fill="#000000" transform="matrix(1.00, 0.00, -0.00, -1.00, 145.1, 486.2)">o</text><text xml:space="preserve" font-family="GillSans,Gill Sans" font-size="42.0" fill="#000000" transform="matrix(1.00, 0.00, -0.00, -1.00, 168.3, 486.2)">l</text><text xml:space="preserve" font-family="GillSans,Gill Sans" font-size="42.0" fill="#000000" transform="matrix(1.00, 0.00, -0.00, -1.00, 177.5, 486.2)">o</text><text xml:space="preserve" font-family="GillSans,Gill Sans" font-size="42.0" fill="#000000" transform="matrix(1.00, 0.00, -0.00, -1.00, 200.7, 486.2)">g</text><text xml:space="preserve" font-family="GillSans,Gill Sans" font-size="42.0" fill="#000000" transform="matrix(1.00, 0.00, -0.00, -1.00, 218.6, 486.2)">i</text><text xml:space="preserve" font-family="GillSans,Gill Sans" font-size="42.0" fill="#000000" transform="matrix(1.00, 0.00, -0.00, -1.00, 227.8, 486.2)">c</text><text xml:space="preserve" font-family="GillSans,Gill Sans" font-size="42.0" fill="#000000" transform="matrix(1.00, 0.00, -0.00, -1.00, 246.2, 486.2)">a</text><text xml:space="preserve" font-family="GillSans,Gill Sans" font-size="42.0" fill="#000000" transform="matrix(1.00, 0.00, -0.00, -1.00, 264.1, 486.2)">l</text><text xml:space="preserve" font-family="GillSans,Gill Sans" font-size="42.0" fill="#000000" transform="matrix(1.00, 0.00, -0.00, -1.00, 273.4, 486.2)"> </text><text xml:space="preserve" font-family="GillSans,Gill Sans" font-size="42.0" fill="#000000" transform="matrix(1.00, 0.00, -0.00, -1.00, 46.0, 437.2)">o</text><text xml:space="preserve" font-family="GillSans,Gill Sans" font-size="42.0" fill="#000000" transform="matrix(1.00, 0.00, -0.00, -1.00, 69.2, 437.2)">r</text><text xml:space="preserve" font-family="GillSans,Gill Sans" font-size="42.0" fill="#000000" transform="matrix(1.00, 0.00, -0.00, -1.00, 85.2, 437.2)">d</text><text xml:space="preserve" font-family="GillSans,Gill Sans" font-size="42.0" fill="#000000" transform="matrix(1.00, 0.00, -0.00, -1.00, 106.6, 437.2)">e</text><text xml:space="preserve" font-family="GillSans,Gill Sans" font-size="42.0" fill="#000000" transform="matrix(1.00, 0.00, -0.00, -1.00, 126.7, 437.2)">r</text><text xml:space="preserve" font-family="GillSans,Gill Sans" font-size="42.0" fill="#000000" transform="matrix(1.00, 0.00, -0.00, -1.00, 46.0, 233.7)">l</text><text xml:space="preserve" font-family="GillSans,Gill Sans" font-size="42.0" fill="#000000" transform="matrix(1.00, 0.00, -0.00, -1.00, 55.2, 233.7)">o</text><text xml:space="preserve" font-family="GillSans,Gill Sans" font-size="42.0" fill="#000000" transform="matrix(1.00, 0.00, -0.00, -1.00, 78.4, 233.7)">g</text><text xml:space="preserve" font-family="GillSans,Gill Sans" font-size="42.0" fill="#000000" transform="matrix(1.00, 0.00, -0.00, -1.00, 96.3, 233.7)">i</text><text xml:space="preserve" font-family="GillSans,Gill Sans" font-size="42.0" fill="#000000" transform="matrix(1.00, 0.00, -0.00, -1.00, 105.5, 233.7)">c</text><text xml:space="preserve" font-family="GillSans,Gill Sans" font-size="42.0" fill="#000000" transform="matrix(1.00, 0.00, -0.00, -1.00, 123.9, 233.7)">a</text><text xml:space="preserve" font-family="GillSans,Gill Sans" font-size="42.0" fill="#000000" transform="matrix(1.00, 0.00, -0.00, -1.00, 141.8, 233.7)">l</text><text xml:space="preserve" font-family="GillSans,Gill Sans" font-size="42.0" fill="#000000" transform="matrix(1.00, 0.00, -0.00, -1.00, 151.0, 233.7)"> </text><text xml:space="preserve" font-family="GillSans,Gill Sans" font-size="42.0" fill="#000000" transform="matrix(1.00, 0.00, -0.00, -1.00, 46.0, 184.7)">o</text><text xml:space="preserve" font-family="GillSans,Gill Sans" font-size="42.0" fill="#000000" transform="matrix(1.00, 0.00, -0.00, -1.00, 69.2, 184.7)">r</text><text xml:space="preserve" font-family="GillSans,Gill Sans" font-size="42.0" fill="#000000" transform="matrix(1.00, 0.00, -0.00, -1.00, 85.2, 184.7)">d</text><text xml:space="preserve" font-family="GillSans,Gill Sans" font-size="42.0" fill="#000000" transform="matrix(1.00, 0.00, -0.00, -1.00, 106.6, 184.7)">e</text><text xml:space="preserve" font-family="GillSans,Gill Sans" font-size="42.0" fill="#000000" transform="matrix(1.00, 0.00, -0.00, -1.00, 126.7, 184.7)">r</text></g></svg>