<?xml version="1.0" encoding="UTF-8" standalone="no"?><svg xmlns="http://www.w3.org/2000/svg" xmlns:xlink="http://www.w3.org/1999/xlink" clip-rule="evenodd" stroke-miterlimit="10" viewBox="0 0 1024 768"><desc>SVG generated by Keynote</desc><defs></defs><g transform="matrix(1.00, 0.00, -0.00, -1.00, 0.0, 768.0)"><path d="M 0.0 768.0 L 1024.0 768.0 L 1024.0 0.0 L 0.0 0.0 Z M 0.0 768.0 " fill="#FEFFFF"></path><text xml:space="preserve" font-family="GillSans,Gill Sans" font-size="64.0" fill="#000000" transform="matrix(1.00, 0.00, -0.00, -1.00, 62.0, 684.8)">“</text><text xml:space="preserve" font-family="GillSans,Gill Sans" font-size="64.0" fill="#000000" transform="matrix(1.00, 0.00, -0.00, -1.00, 89.3, 684.8)">p</text><text xml:space="preserve" font-family="GillSans,Gill Sans" font-size="64.0" fill="#000000" transform="matrix(1.00, 0.00, -0.00, -1.00, 121.3, 684.8)">l</text><text xml:space="preserve" font-family="GillSans,Gill Sans" font-size="64.0" fill="#000000" transform="matrix(1.00, 0.00, -0.00, -1.00, 135.3, 684.8)">a</text><text xml:space="preserve" font-family="GillSans,Gill Sans" font-size="64.0" fill="#000000" transform="matrix(1.00, 0.00, -0.00, -1.00, 160.1, 684.8)">y</text><text xml:space="preserve" font-family="GillSans,Gill Sans" font-size="64.0" fill="#000000" transform="matrix(1.00, 0.00, -0.00, -1.00, 188.1, 684.8)">s</text><text xml:space="preserve" font-family="GillSans,Gill Sans" font-size="64.0" fill="#000000" transform="matrix(1.00, 0.00, -0.00, -1.00, 212.7, 684.8)"> </text><text xml:space="preserve" font-family="GillSans,Gill Sans" font-size="64.0" fill="#000000" transform="matrix(1.00, 0.00, -0.00, -1.00, 230.5, 684.8)">w</text><text xml:space="preserve" font-family="GillSans,Gill Sans" font-size="64.0" fill="#000000" transform="matrix(1.00, 0.00, -0.00, -1.00, 275.3, 684.8)">e</text><text xml:space="preserve" font-family="GillSans,Gill Sans" font-size="64.0" fill="#000000" transform="matrix(1.00, 0.00, -0.00, -1.00, 305.9, 684.8)">l</text><text xml:space="preserve" font-family="GillSans,Gill Sans" font-size="64.0" fill="#000000" transform="matrix(1.00, 0.00, -0.00, -1.00, 320.0, 684.8)">l</text><text xml:space="preserve" font-family="GillSans,Gill Sans" font-size="64.0" fill="#000000" transform="matrix(1.00, 0.00, -0.00, -1.00, 334.0, 684.8)"> </text><text xml:space="preserve" font-family="GillSans,Gill Sans" font-size="64.0" fill="#000000" transform="matrix(1.00, 0.00, -0.00, -1.00, 351.8, 684.8)">w</text><text xml:space="preserve" font-family="GillSans,Gill Sans" font-size="64.0" fill="#000000" transform="matrix(1.00, 0.00, -0.00, -1.00, 397.8, 684.8)">i</text><text xml:space="preserve" font-family="GillSans,Gill Sans" font-size="64.0" fill="#000000" transform="matrix(1.00, 0.00, -0.00, -1.00, 411.9, 684.8)">t</text><text xml:space="preserve" font-family="GillSans,Gill Sans" font-size="64.0" fill="#000000" transform="matrix(1.00, 0.00, -0.00, -1.00, 433.2, 684.8)">h</text><text xml:space="preserve" font-family="GillSans,Gill Sans" font-size="64.0" fill="#000000" transform="matrix(1.00, 0.00, -0.00, -1.00, 465.2, 684.8)"> </text><text xml:space="preserve" font-family="GillSans,Gill Sans" font-size="64.0" fill="#000000" transform="matrix(1.00, 0.00, -0.00, -1.00, 482.9, 684.8)">d</text><text xml:space="preserve" font-family="GillSans,Gill Sans" font-size="64.0" fill="#000000" transform="matrix(1.00, 0.00, -0.00, -1.00, 515.5, 684.8)">e</text><text xml:space="preserve" font-family="GillSans,Gill Sans" font-size="64.0" fill="#000000" transform="matrix(1.00, 0.00, -0.00, -1.00, 546.2, 684.8)">f</text><text xml:space="preserve" font-family="GillSans,Gill Sans" font-size="64.0" fill="#000000" transform="matrix(1.00, 0.00, -0.00, -1.00, 562.2, 684.8)">a</text><text xml:space="preserve" font-family="GillSans,Gill Sans" font-size="64.0" fill="#000000" transform="matrix(1.00, 0.00, -0.00, -1.00, 589.5, 684.8)">u</text><text xml:space="preserve" font-family="GillSans,Gill Sans" font-size="64.0" fill="#000000" transform="matrix(1.00, 0.00, -0.00, -1.00, 621.5, 684.8)">l</text><text xml:space="preserve" font-family="GillSans,Gill Sans" font-size="64.0" fill="#000000" transform="matrix(1.00, 0.00, -0.00, -1.00, 635.5, 684.8)">t</text><text xml:space="preserve" font-family="GillSans,Gill Sans" font-size="64.0" fill="#000000" transform="matrix(1.00, 0.00, -0.00, -1.00, 656.9, 684.8)"> </text><text xml:space="preserve" font-family="GillSans,Gill Sans" font-size="64.0" fill="#000000" transform="matrix(1.00, 0.00, -0.00, -1.00, 674.6, 684.8)">o</text><text xml:space="preserve" font-family="GillSans,Gill Sans" font-size="64.0" fill="#000000" transform="matrix(1.00, 0.00, -0.00, -1.00, 709.9, 684.8)">r</text><text xml:space="preserve" font-family="GillSans,Gill Sans" font-size="64.0" fill="#000000" transform="matrix(1.00, 0.00, -0.00, -1.00, 734.3, 684.8)">d</text><text xml:space="preserve" font-family="GillSans,Gill Sans" font-size="64.0" fill="#000000" transform="matrix(1.00, 0.00, -0.00, -1.00, 766.9, 684.8)">e</text><text xml:space="preserve" font-family="GillSans,Gill Sans" font-size="64.0" fill="#000000" transform="matrix(1.00, 0.00, -0.00, -1.00, 797.6, 684.8)">r</text><text xml:space="preserve" font-family="GillSans,Gill Sans" font-size="64.0" fill="#000000" transform="matrix(1.00, 0.00, -0.00, -1.00, 822.9, 684.8)">i</text><text xml:space="preserve" font-family="GillSans,Gill Sans" font-size="64.0" fill="#000000" transform="matrix(1.00, 0.00, -0.00, -1.00, 837.0, 684.8)">n</text><text xml:space="preserve" font-family="GillSans,Gill Sans" font-size="64.0" fill="#000000" transform="matrix(1.00, 0.00, -0.00, -1.00, 869.0, 684.8)">g</text><text xml:space="preserve" font-family="GillSans,Gill Sans" font-size="64.0" fill="#000000" transform="matrix(1.00, 0.00, -0.00, -1.00, 896.3, 684.8)">”</text><image xlink:href="../../7DB4C4D3-8BBE-4014-931A-9C8FA4C4327D/assets/DD511D99FC78336C85DC8EB96E485080.png" width="1232.00" height="306.00" transform="matrix(0.62, 0.00, -0.00, -0.62, 128.0, 595.0)"></image><text xml:space="preserve" font-family="GillSans,Gill Sans" font-size="58.0" fill="#000000" transform="matrix(1.00, 0.00, -0.00, -1.00, 61.0, 305.4)">u</text><text xml:space="preserve" font-family="GillSans,Gill Sans" font-size="58.0" fill="#000000" transform="matrix(1.00, 0.00, -0.00, -1.00, 90.0, 305.4)">s</text><text xml:space="preserve" font-family="GillSans,Gill Sans" font-size="58.0" fill="#000000" transform="matrix(1.00, 0.00, -0.00, -1.00, 112.3, 305.4)">e</text><text xml:space="preserve" font-family="GillSans,Gill Sans" font-size="58.0" fill="#000000" transform="matrix(1.00, 0.00, -0.00, -1.00, 140.1, 305.4)"> </text><text xml:space="preserve" font-family="GillSans,Gill Sans" font-size="58.0" fill="#000000" transform="matrix(1.00, 0.00, -0.00, -1.00, 156.2, 305.4)">t</text><text xml:space="preserve" font-family="GillSans,Gill Sans" font-size="58.0" fill="#000000" transform="matrix(1.00, 0.00, -0.00, -1.00, 175.5, 305.4)">h</text><text xml:space="preserve" font-family="GillSans,Gill Sans" font-size="58.0" fill="#000000" transform="matrix(1.00, 0.00, -0.00, -1.00, 204.5, 305.4)">e</text><text xml:space="preserve" font-family="GillSans,Gill Sans" font-size="58.0" fill="#000000" transform="matrix(1.00, 0.00, -0.00, -1.00, 232.3, 305.4)"> </text><text xml:space="preserve" font-family="GillSans,Gill Sans" font-size="58.0" fill="#000000" transform="matrix(1.00, 0.00, -0.00, -1.00, 248.4, 305.4)">I</text><text xml:space="preserve" font-family="GillSans,Gill Sans" font-size="58.0" fill="#000000" transform="matrix(1.00, 0.00, -0.00, -1.00, 262.9, 305.4)">S</text><text xml:space="preserve" font-family="GillSans,Gill Sans" font-size="58.0" fill="#000000" transform="matrix(1.00, 0.00, -0.00, -1.00, 289.5, 305.4)">O</text><text xml:space="preserve" font-family="GillSans,Gill Sans" font-size="58.0" fill="#000000" transform="matrix(1.00, 0.00, -0.00, -1.00, 337.2, 305.4)"> </text><text xml:space="preserve" font-family="GillSans,Gill Sans" font-size="58.0" fill="#000000" transform="matrix(1.00, 0.00, -0.00, -1.00, 353.3, 305.4)">8</text><text xml:space="preserve" font-family="GillSans,Gill Sans" font-size="58.0" fill="#000000" transform="matrix(1.00, 0.00, -0.00, -1.00, 382.3, 305.4)">6</text><text xml:space="preserve" font-family="GillSans,Gill Sans" font-size="58.0" fill="#000000" transform="matrix(1.00, 0.00, -0.00, -1.00, 411.3, 305.4)">0</text><text xml:space="preserve" font-family="GillSans,Gill Sans" font-size="58.0" fill="#000000" transform="matrix(1.00, 0.00, -0.00, -1.00, 440.3, 305.4)">1</text><text xml:space="preserve" font-family="GillSans,Gill Sans" font-size="58.0" fill="#000000" transform="matrix(1.00, 0.00, -0.00, -1.00, 469.3, 305.4)"> </text><text xml:space="preserve" font-family="GillSans,Gill Sans" font-size="58.0" fill="#000000" transform="matrix(1.00, 0.00, -0.00, -1.00, 485.4, 305.4)">s</text><text xml:space="preserve" font-family="GillSans,Gill Sans" font-size="58.0" fill="#000000" transform="matrix(1.00, 0.00, -0.00, -1.00, 507.7, 305.4)">t</text><text xml:space="preserve" font-family="GillSans,Gill Sans" font-size="58.0" fill="#000000" transform="matrix(1.00, 0.00, -0.00, -1.00, 527.0, 305.4)">a</text><text xml:space="preserve" font-family="GillSans,Gill Sans" font-size="58.0" fill="#000000" transform="matrix(1.00, 0.00, -0.00, -1.00, 551.8, 305.4)">n</text><text xml:space="preserve" font-family="GillSans,Gill Sans" font-size="58.0" fill="#000000" transform="matrix(1.00, 0.00, -0.00, -1.00, 580.8, 305.4)">d</text><text xml:space="preserve" font-family="GillSans,Gill Sans" font-size="58.0" fill="#000000" transform="matrix(1.00, 0.00, -0.00, -1.00, 610.3, 305.4)">a</text><text xml:space="preserve" font-family="GillSans,Gill Sans" font-size="58.0" fill="#000000" transform="matrix(1.00, 0.00, -0.00, -1.00, 635.1, 305.4)">r</text><text xml:space="preserve" font-family="GillSans,Gill Sans" font-size="58.0" fill="#000000" transform="matrix(1.00, 0.00, -0.00, -1.00, 657.2, 305.4)">d</text><text xml:space="preserve" font-family="GillSans,Gill Sans" font-size="58.0" fill="#000000" transform="matrix(1.00, 0.00, -0.00, -1.00, 686.7, 305.4)"> </text><text xml:space="preserve" font-family="GillSans,Gill Sans" font-size="58.0" fill="#000000" transform="matrix(1.00, 0.00, -0.00, -1.00, 702.8, 305.4)">f</text><text xml:space="preserve" font-family="GillSans,Gill Sans" font-size="58.0" fill="#000000" transform="matrix(1.00, 0.00, -0.00, -1.00, 716.8, 305.4)">o</text><text xml:space="preserve" font-family="GillSans,Gill Sans" font-size="58.0" fill="#000000" transform="matrix(1.00, 0.00, -0.00, -1.00, 748.7, 305.4)">r</text><text xml:space="preserve" font-family="GillSans,Gill Sans" font-size="58.0" fill="#000000" transform="matrix(1.00, 0.00, -0.00, -1.00, 771.7, 305.4)"> </text><text xml:space="preserve" font-family="GillSans,Gill Sans" font-size="58.0" fill="#000000" transform="matrix(1.00, 0.00, -0.00, -1.00, 787.8, 305.4)">d</text><text xml:space="preserve" font-family="GillSans,Gill Sans" font-size="58.0" fill="#000000" transform="matrix(1.00, 0.00, -0.00, -1.00, 817.4, 305.4)">a</text><text xml:space="preserve" font-family="GillSans,Gill Sans" font-size="58.0" fill="#000000" transform="matrix(1.00, 0.00, -0.00, -1.00, 842.1, 305.4)">t</text><text xml:space="preserve" font-family="GillSans,Gill Sans" font-size="58.0" fill="#000000" transform="matrix(1.00, 0.00, -0.00, -1.00, 861.4, 305.4)">e</text><text xml:space="preserve" font-family="GillSans,Gill Sans" font-size="58.0" fill="#000000" transform="matrix(1.00, 0.00, -0.00, -1.00, 889.2, 305.4)">s</text><path d="M 201.0 595.0 L 304.0 595.0 L 304.0 404.0 L 201.0 404.0 Z M 201.0 595.0 " fill="#FF9300" fill-opacity="0.27"></path><text xml:space="preserve" font-family="GillSans,Gill Sans" font-size="99.0" fill="#000000" transform="matrix(1.00, 0.00, -0.00, -1.00, 191.0, 171.3)">Y</text><text xml:space="preserve" font-family="GillSans,Gill Sans" font-size="99.0" fill="#000000" transform="matrix(1.00, 0.00, -0.00, -1.00, 250.8, 171.3)">Y</text><text xml:space="preserve" font-family="GillSans,Gill Sans" font-size="99.0" fill="#000000" transform="matrix(1.00, 0.00, -0.00, -1.00, 310.6, 171.3)">Y</text><text xml:space="preserve" font-family="GillSans,Gill Sans" font-size="99.0" fill="#000000" transform="matrix(1.00, 0.00, -0.00, -1.00, 370.4, 171.3)">Y</text><text xml:space="preserve" font-family="GillSans,Gill Sans" font-size="99.0" fill="#000000" transform="matrix(1.00, 0.00, -0.00, -1.00, 415.3, 171.3)">-</text><text xml:space="preserve" font-family="GillSans,Gill Sans" font-size="99.0" fill="#000000" transform="matrix(1.00, 0.00, -0.00, -1.00, 447.4, 171.3)">M</text><text xml:space="preserve" font-family="GillSans,Gill Sans" font-size="99.0" fill="#000000" transform="matrix(1.00, 0.00, -0.00, -1.00, 524.6, 171.3)">M</text><text xml:space="preserve" font-family="GillSans,Gill Sans" font-size="99.0" fill="#000000" transform="matrix(1.00, 0.00, -0.00, -1.00, 601.9, 171.3)">-</text><text xml:space="preserve" font-family="GillSans,Gill Sans" font-size="99.0" fill="#000000" transform="matrix(1.00, 0.00, -0.00, -1.00, 633.9, 171.3)">D</text><text xml:space="preserve" font-family="GillSans,Gill Sans" font-size="99.0" fill="#000000" transform="matrix(1.00, 0.00, -0.00, -1.00, 708.2, 171.3)">D</text></g></svg>