<?xml version="1.0" encoding="UTF-8" standalone="no"?><svg xmlns="http://www.w3.org/2000/svg" xmlns:xlink="http://www.w3.org/1999/xlink" clip-rule="evenodd" stroke-miterlimit="10" viewBox="0 0 1024 768"><desc>SVG generated by Keynote</desc><defs></defs><g transform="matrix(1.00, 0.00, -0.00, -1.00, 0.0, 768.0)"><path d="M 0.0 768.0 L 1024.0 768.0 L 1024.0 0.0 L 0.0 0.0 Z M 0.0 768.0 " fill="#FEFFFF"></path><image xlink:href="EFC7D1D11A8A7563DA237ABAB49931F1.png" width="392.00" height="457.00" transform="matrix(1.44, 0.00, -0.00, -1.44, 221.0, 713.0)"></image><text xml:space="preserve" font-family="Helvetica,Helvetica" font-size="16.0" fill="#000000" transform="matrix(1.00, 0.00, -0.00, -1.00, 855.5, 10.7)">h</text><text xml:space="preserve" font-family="Helvetica,Helvetica" font-size="16.0" fill="#000000" transform="matrix(1.00, 0.00, -0.00, -1.00, 864.4, 10.7)">t</text><text xml:space="preserve" font-family="Helvetica,Helvetica" font-size="16.0" fill="#000000" transform="matrix(1.00, 0.00, -0.00, -1.00, 868.8, 10.7)">t</text><text xml:space="preserve" font-family="Helvetica,Helvetica" font-size="16.0" fill="#000000" transform="matrix(1.00, 0.00, -0.00, -1.00, 873.3, 10.7)">p</text><text xml:space="preserve" font-family="Helvetica,Helvetica" font-size="16.0" fill="#000000" transform="matrix(1.00, 0.00, -0.00, -1.00, 882.2, 10.7)">:</text><text xml:space="preserve" font-family="Helvetica,Helvetica" font-size="16.0" fill="#000000" transform="matrix(1.00, 0.00, -0.00, -1.00, 886.6, 10.7)">/</text><text xml:space="preserve" font-family="Helvetica,Helvetica" font-size="16.0" fill="#000000" transform="matrix(1.00, 0.00, -0.00, -1.00, 891.1, 10.7)">/</text><text xml:space="preserve" font-family="Helvetica,Helvetica" font-size="16.0" fill="#000000" transform="matrix(1.00, 0.00, -0.00, -1.00, 895.5, 10.7)">x</text><text xml:space="preserve" font-family="Helvetica,Helvetica" font-size="16.0" fill="#000000" transform="matrix(1.00, 0.00, -0.00, -1.00, 903.5, 10.7)">k</text><text xml:space="preserve" font-family="Helvetica,Helvetica" font-size="16.0" fill="#000000" transform="matrix(1.00, 0.00, -0.00, -1.00, 911.5, 10.7)">c</text><text xml:space="preserve" font-family="Helvetica,Helvetica" font-size="16.0" fill="#000000" transform="matrix(1.00, 0.00, -0.00, -1.00, 919.5, 10.7)">d</text><text xml:space="preserve" font-family="Helvetica,Helvetica" font-size="16.0" fill="#000000" transform="matrix(1.00, 0.00, -0.00, -1.00, 928.4, 10.7)">.</text><text xml:space="preserve" font-family="Helvetica,Helvetica" font-size="16.0" fill="#000000" transform="matrix(1.00, 0.00, -0.00, -1.00, 932.9, 10.7)">c</text><text xml:space="preserve" font-family="Helvetica,Helvetica" font-size="16.0" fill="#000000" transform="matrix(1.00, 0.00, -0.00, -1.00, 940.9, 10.7)">o</text><text xml:space="preserve" font-family="Helvetica,Helvetica" font-size="16.0" fill="#000000" transform="matrix(1.00, 0.00, -0.00, -1.00, 949.8, 10.7)">m</text><text xml:space="preserve" font-family="Helvetica,Helvetica" font-size="16.0" fill="#000000" transform="matrix(1.00, 0.00, -0.00, -1.00, 963.1, 10.7)">/</text><text xml:space="preserve" font-family="Helvetica,Helvetica" font-size="16.0" fill="#000000" transform="matrix(1.00, 0.00, -0.00, -1.00, 967.5, 10.7)">1</text><text xml:space="preserve" font-family="Helvetica,Helvetica" font-size="16.0" fill="#000000" transform="matrix(1.00, 0.00, -0.00, -1.00, 975.3, 10.7)">1</text><text xml:space="preserve" font-family="Helvetica,Helvetica" font-size="16.0" fill="#000000" transform="matrix(1.00, 0.00, -0.00, -1.00, 984.2, 10.7)">7</text><text xml:space="preserve" font-family="Helvetica,Helvetica" font-size="16.0" fill="#000000" transform="matrix(1.00, 0.00, -0.00, -1.00, 993.1, 10.7)">9</text><text xml:space="preserve" font-family="Helvetica,Helvetica" font-size="16.0" fill="#000000" transform="matrix(1.00, 0.00, -0.00, -1.00, 1002.0, 10.7)">/</text></g></svg>