<?xml version="1.0" encoding="UTF-8" standalone="no"?><svg xmlns="http://www.w3.org/2000/svg" xmlns:xlink="http://www.w3.org/1999/xlink" clip-rule="evenodd" stroke-miterlimit="10" viewBox="0 0 1024 768"><desc>SVG generated by Keynote</desc><defs></defs><g transform="matrix(1.00, 0.00, -0.00, -1.00, 0.0, 768.0)"><path d="M 0.0 768.0 L 1024.0 768.0 L 1024.0 0.0 L 0.0 0.0 Z M 0.0 768.0 " fill="#FEFFFF"></path><image xlink:href="DC289554FC208935A0CA1BEA4EF321BF.png" width="949.00" height="790.00" transform="matrix(0.85, 0.00, -0.00, -0.85, 107.0, 690.0)"></image><text xml:space="preserve" font-family="GillSans,Gill Sans" font-size="37.0" fill="#000000" transform="matrix(1.00, 0.00, -0.00, -1.00, 28.0, 711.5)">R</text><text xml:space="preserve" font-family="GillSans,Gill Sans" font-size="37.0" fill="#000000" transform="matrix(1.00, 0.00, -0.00, -1.00, 50.3, 711.5)">S</text><text xml:space="preserve" font-family="GillSans,Gill Sans" font-size="37.0" fill="#000000" transform="matrix(1.00, 0.00, -0.00, -1.00, 67.3, 711.5)">t</text><text xml:space="preserve" font-family="GillSans,Gill Sans" font-size="37.0" fill="#000000" transform="matrix(1.00, 0.00, -0.00, -1.00, 79.6, 711.5)">u</text><text xml:space="preserve" font-family="GillSans,Gill Sans" font-size="37.0" fill="#000000" transform="matrix(1.00, 0.00, -0.00, -1.00, 98.1, 711.5)">d</text><text xml:space="preserve" font-family="GillSans,Gill Sans" font-size="37.0" fill="#000000" transform="matrix(1.00, 0.00, -0.00, -1.00, 117.0, 711.5)">i</text><text xml:space="preserve" font-family="GillSans,Gill Sans" font-size="37.0" fill="#000000" transform="matrix(1.00, 0.00, -0.00, -1.00, 125.1, 711.5)">o</text><text xml:space="preserve" font-family="GillSans,Gill Sans" font-size="37.0" fill="#000000" transform="matrix(1.00, 0.00, -0.00, -1.00, 145.5, 711.5)"> </text><text xml:space="preserve" font-family="GillSans,Gill Sans" font-size="37.0" fill="#000000" transform="matrix(1.00, 0.00, -0.00, -1.00, 155.8, 711.5)">i</text><text xml:space="preserve" font-family="GillSans,Gill Sans" font-size="37.0" fill="#000000" transform="matrix(1.00, 0.00, -0.00, -1.00, 163.9, 711.5)">s</text><text xml:space="preserve" font-family="GillSans,Gill Sans" font-size="37.0" fill="#000000" transform="matrix(1.00, 0.00, -0.00, -1.00, 178.1, 711.5)"> </text><text xml:space="preserve" font-family="GillSans,Gill Sans" font-size="37.0" fill="#000000" transform="matrix(1.00, 0.00, -0.00, -1.00, 188.4, 711.5)">a</text><text xml:space="preserve" font-family="GillSans,Gill Sans" font-size="37.0" fill="#000000" transform="matrix(1.00, 0.00, -0.00, -1.00, 204.2, 711.5)">n</text><text xml:space="preserve" font-family="GillSans,Gill Sans" font-size="37.0" fill="#000000" transform="matrix(1.00, 0.00, -0.00, -1.00, 222.7, 711.5)"> </text><text xml:space="preserve" font-family="GillSans,Gill Sans" font-size="37.0" fill="#000000" transform="matrix(1.00, 0.00, -0.00, -1.00, 233.0, 711.5)">i</text><text xml:space="preserve" font-family="GillSans,Gill Sans" font-size="37.0" fill="#000000" transform="matrix(1.00, 0.00, -0.00, -1.00, 241.1, 711.5)">n</text><text xml:space="preserve" font-family="GillSans,Gill Sans" font-size="37.0" fill="#000000" transform="matrix(1.00, 0.00, -0.00, -1.00, 259.6, 711.5)">t</text><text xml:space="preserve" font-family="GillSans,Gill Sans" font-size="37.0" fill="#000000" transform="matrix(1.00, 0.00, -0.00, -1.00, 271.9, 711.5)">e</text><text xml:space="preserve" font-family="GillSans,Gill Sans" font-size="37.0" fill="#000000" transform="matrix(1.00, 0.00, -0.00, -1.00, 289.6, 711.5)">g</text><text xml:space="preserve" font-family="GillSans,Gill Sans" font-size="37.0" fill="#000000" transform="matrix(1.00, 0.00, -0.00, -1.00, 305.4, 711.5)">r</text><text xml:space="preserve" font-family="GillSans,Gill Sans" font-size="37.0" fill="#000000" transform="matrix(1.00, 0.00, -0.00, -1.00, 320.0, 711.5)">a</text><text xml:space="preserve" font-family="GillSans,Gill Sans" font-size="37.0" fill="#000000" transform="matrix(1.00, 0.00, -0.00, -1.00, 335.8, 711.5)">t</text><text xml:space="preserve" font-family="GillSans,Gill Sans" font-size="37.0" fill="#000000" transform="matrix(1.00, 0.00, -0.00, -1.00, 348.2, 711.5)">e</text><text xml:space="preserve" font-family="GillSans,Gill Sans" font-size="37.0" fill="#000000" transform="matrix(1.00, 0.00, -0.00, -1.00, 365.9, 711.5)">d</text><text xml:space="preserve" font-family="GillSans,Gill Sans" font-size="37.0" fill="#000000" transform="matrix(1.00, 0.00, -0.00, -1.00, 384.7, 711.5)"> </text><text xml:space="preserve" font-family="GillSans,Gill Sans" font-size="37.0" fill="#000000" transform="matrix(1.00, 0.00, -0.00, -1.00, 395.0, 711.5)">d</text><text xml:space="preserve" font-family="GillSans,Gill Sans" font-size="37.0" fill="#000000" transform="matrix(1.00, 0.00, -0.00, -1.00, 413.9, 711.5)">e</text><text xml:space="preserve" font-family="GillSans,Gill Sans" font-size="37.0" fill="#000000" transform="matrix(1.00, 0.00, -0.00, -1.00, 431.0, 711.5)">v</text><text xml:space="preserve" font-family="GillSans,Gill Sans" font-size="37.0" fill="#000000" transform="matrix(1.00, 0.00, -0.00, -1.00, 446.5, 711.5)">e</text><text xml:space="preserve" font-family="GillSans,Gill Sans" font-size="37.0" fill="#000000" transform="matrix(1.00, 0.00, -0.00, -1.00, 464.2, 711.5)">l</text><text xml:space="preserve" font-family="GillSans,Gill Sans" font-size="37.0" fill="#000000" transform="matrix(1.00, 0.00, -0.00, -1.00, 472.3, 711.5)">o</text><text xml:space="preserve" font-family="GillSans,Gill Sans" font-size="37.0" fill="#000000" transform="matrix(1.00, 0.00, -0.00, -1.00, 492.7, 711.5)">p</text><text xml:space="preserve" font-family="GillSans,Gill Sans" font-size="37.0" fill="#000000" transform="matrix(1.00, 0.00, -0.00, -1.00, 511.2, 711.5)">m</text><text xml:space="preserve" font-family="GillSans,Gill Sans" font-size="37.0" fill="#000000" transform="matrix(1.00, 0.00, -0.00, -1.00, 539.8, 711.5)">e</text><text xml:space="preserve" font-family="GillSans,Gill Sans" font-size="37.0" fill="#000000" transform="matrix(1.00, 0.00, -0.00, -1.00, 557.5, 711.5)">n</text><text xml:space="preserve" font-family="GillSans,Gill Sans" font-size="37.0" fill="#000000" transform="matrix(1.00, 0.00, -0.00, -1.00, 576.0, 711.5)">t</text><text xml:space="preserve" font-family="GillSans,Gill Sans" font-size="37.0" fill="#000000" transform="matrix(1.00, 0.00, -0.00, -1.00, 588.3, 711.5)"> </text><text xml:space="preserve" font-family="GillSans,Gill Sans" font-size="37.0" fill="#000000" transform="matrix(1.00, 0.00, -0.00, -1.00, 598.6, 711.5)">e</text><text xml:space="preserve" font-family="GillSans,Gill Sans" font-size="37.0" fill="#000000" transform="matrix(1.00, 0.00, -0.00, -1.00, 616.3, 711.5)">n</text><text xml:space="preserve" font-family="GillSans,Gill Sans" font-size="37.0" fill="#000000" transform="matrix(1.00, 0.00, -0.00, -1.00, 634.2, 711.5)">v</text><text xml:space="preserve" font-family="GillSans,Gill Sans" font-size="37.0" fill="#000000" transform="matrix(1.00, 0.00, -0.00, -1.00, 650.5, 711.5)">i</text><text xml:space="preserve" font-family="GillSans,Gill Sans" font-size="37.0" fill="#000000" transform="matrix(1.00, 0.00, -0.00, -1.00, 658.6, 711.5)">r</text><text xml:space="preserve" font-family="GillSans,Gill Sans" font-size="37.0" fill="#000000" transform="matrix(1.00, 0.00, -0.00, -1.00, 672.3, 711.5)">o</text><text xml:space="preserve" font-family="GillSans,Gill Sans" font-size="37.0" fill="#000000" transform="matrix(1.00, 0.00, -0.00, -1.00, 692.7, 711.5)">n</text><text xml:space="preserve" font-family="GillSans,Gill Sans" font-size="37.0" fill="#000000" transform="matrix(1.00, 0.00, -0.00, -1.00, 711.2, 711.5)">m</text><text xml:space="preserve" font-family="GillSans,Gill Sans" font-size="37.0" fill="#000000" transform="matrix(1.00, 0.00, -0.00, -1.00, 739.7, 711.5)">e</text><text xml:space="preserve" font-family="GillSans,Gill Sans" font-size="37.0" fill="#000000" transform="matrix(1.00, 0.00, -0.00, -1.00, 757.5, 711.5)">n</text><text xml:space="preserve" font-family="GillSans,Gill Sans" font-size="37.0" fill="#000000" transform="matrix(1.00, 0.00, -0.00, -1.00, 776.0, 711.5)">t</text><text xml:space="preserve" font-family="GillSans,Gill Sans" font-size="37.0" fill="#000000" transform="matrix(1.00, 0.00, -0.00, -1.00, 788.3, 711.5)"> </text><text xml:space="preserve" font-family="GillSans,Gill Sans" font-size="37.0" fill="#000000" transform="matrix(1.00, 0.00, -0.00, -1.00, 798.6, 711.5)">(</text><text xml:space="preserve" font-family="GillSans,Gill Sans" font-size="37.0" fill="#000000" transform="matrix(1.00, 0.00, -0.00, -1.00, 810.5, 711.5)">I</text><text xml:space="preserve" font-family="GillSans,Gill Sans" font-size="37.0" fill="#000000" transform="matrix(1.00, 0.00, -0.00, -1.00, 819.8, 711.5)">D</text><text xml:space="preserve" font-family="GillSans,Gill Sans" font-size="37.0" fill="#000000" transform="matrix(1.00, 0.00, -0.00, -1.00, 847.5, 711.5)">E</text><text xml:space="preserve" font-family="GillSans,Gill Sans" font-size="37.0" fill="#000000" transform="matrix(1.00, 0.00, -0.00, -1.00, 866.0, 711.5)">)</text><text xml:space="preserve" font-family="GillSans,Gill Sans" font-size="37.0" fill="#000000" transform="matrix(1.00, 0.00, -0.00, -1.00, 878.0, 711.5)"> </text><text xml:space="preserve" font-family="GillSans,Gill Sans" font-size="37.0" fill="#000000" transform="matrix(1.00, 0.00, -0.00, -1.00, 888.3, 711.5)">f</text><text xml:space="preserve" font-family="GillSans,Gill Sans" font-size="37.0" fill="#000000" transform="matrix(1.00, 0.00, -0.00, -1.00, 897.1, 711.5)">o</text><text xml:space="preserve" font-family="GillSans,Gill Sans" font-size="37.0" fill="#000000" transform="matrix(1.00, 0.00, -0.00, -1.00, 917.6, 711.5)">r</text><text xml:space="preserve" font-family="GillSans,Gill Sans" font-size="37.0" fill="#000000" transform="matrix(1.00, 0.00, -0.00, -1.00, 932.2, 711.5)"> </text><text xml:space="preserve" font-family="GillSans,Gill Sans" font-size="37.0" fill="#000000" transform="matrix(1.00, 0.00, -0.00, -1.00, 942.5, 711.5)">R</text><g><clipPath id="clip0x6100004a6000"><path d="M 27.0 706.8 L 145.5 706.8 L 145.5 710.7 L 27.0 710.7 Z M 27.0 706.8 "></path></clipPath><g clip-path="url(#clip0x6100004a6000)"><path d="M 4.0 41.3 L 121.5 41.3 " fill="none" stroke="#000000" stroke-width="1.84" transform="matrix(1.00, 0.00, 0.00, -1.00, 24.0, 750.0)"></path></g></g></g></svg>