<?xml version="1.0" encoding="UTF-8" standalone="no"?><svg xmlns="http://www.w3.org/2000/svg" xmlns:xlink="http://www.w3.org/1999/xlink" clip-rule="evenodd" stroke-miterlimit="10" viewBox="0 0 1024 768"><desc>SVG generated by Keynote</desc><defs></defs><g transform="matrix(1.00, 0.00, -0.00, -1.00, 0.0, 768.0)"><path d="M 0.0 768.0 L 1024.0 768.0 L 1024.0 0.0 L 0.0 0.0 Z M 0.0 768.0 " fill="#FEFFFF"></path><text xml:space="preserve" font-family="GillSans,Gill Sans" font-size="64.0" fill="#000000" transform="matrix(1.00, 0.00, -0.00, -1.00, 62.0, 684.8)">“</text><text xml:space="preserve" font-family="GillSans,Gill Sans" font-size="64.0" fill="#000000" transform="matrix(1.00, 0.00, -0.00, -1.00, 89.3, 684.8)">m</text><text xml:space="preserve" font-family="GillSans,Gill Sans" font-size="64.0" fill="#000000" transform="matrix(1.00, 0.00, -0.00, -1.00, 138.6, 684.8)">a</text><text xml:space="preserve" font-family="GillSans,Gill Sans" font-size="64.0" fill="#000000" transform="matrix(1.00, 0.00, -0.00, -1.00, 165.9, 684.8)">c</text><text xml:space="preserve" font-family="GillSans,Gill Sans" font-size="64.0" fill="#000000" transform="matrix(1.00, 0.00, -0.00, -1.00, 194.0, 684.8)">h</text><text xml:space="preserve" font-family="GillSans,Gill Sans" font-size="64.0" fill="#000000" transform="matrix(1.00, 0.00, -0.00, -1.00, 226.0, 684.8)">i</text><text xml:space="preserve" font-family="GillSans,Gill Sans" font-size="64.0" fill="#000000" transform="matrix(1.00, 0.00, -0.00, -1.00, 240.0, 684.8)">n</text><text xml:space="preserve" font-family="GillSans,Gill Sans" font-size="64.0" fill="#000000" transform="matrix(1.00, 0.00, -0.00, -1.00, 272.0, 684.8)">e</text><text xml:space="preserve" font-family="GillSans,Gill Sans" font-size="64.0" fill="#000000" transform="matrix(1.00, 0.00, -0.00, -1.00, 302.7, 684.8)"> </text><text xml:space="preserve" font-family="GillSans,Gill Sans" font-size="64.0" fill="#000000" transform="matrix(1.00, 0.00, -0.00, -1.00, 320.4, 684.8)">r</text><text xml:space="preserve" font-family="GillSans,Gill Sans" font-size="64.0" fill="#000000" transform="matrix(1.00, 0.00, -0.00, -1.00, 344.5, 684.8)">e</text><text xml:space="preserve" font-family="GillSans,Gill Sans" font-size="64.0" fill="#000000" transform="matrix(1.00, 0.00, -0.00, -1.00, 375.2, 684.8)">a</text><text xml:space="preserve" font-family="GillSans,Gill Sans" font-size="64.0" fill="#000000" transform="matrix(1.00, 0.00, -0.00, -1.00, 402.5, 684.8)">d</text><text xml:space="preserve" font-family="GillSans,Gill Sans" font-size="64.0" fill="#000000" transform="matrix(1.00, 0.00, -0.00, -1.00, 435.1, 684.8)">a</text><text xml:space="preserve" font-family="GillSans,Gill Sans" font-size="64.0" fill="#000000" transform="matrix(1.00, 0.00, -0.00, -1.00, 462.4, 684.8)">b</text><text xml:space="preserve" font-family="GillSans,Gill Sans" font-size="64.0" fill="#000000" transform="matrix(1.00, 0.00, -0.00, -1.00, 494.4, 684.8)">l</text><text xml:space="preserve" font-family="GillSans,Gill Sans" font-size="64.0" fill="#000000" transform="matrix(1.00, 0.00, -0.00, -1.00, 508.4, 684.8)">e</text><text xml:space="preserve" font-family="GillSans,Gill Sans" font-size="64.0" fill="#000000" transform="matrix(1.00, 0.00, -0.00, -1.00, 539.1, 684.8)">”</text><text xml:space="preserve" font-family="GillSans,Gill Sans" font-size="52.0" fill="#000000" transform="matrix(1.00, 0.00, -0.00, -1.00, 105.0, 518.0)">r</text><text xml:space="preserve" font-family="GillSans,Gill Sans" font-size="52.0" fill="#000000" transform="matrix(1.00, 0.00, -0.00, -1.00, 124.6, 518.0)">e</text><text xml:space="preserve" font-family="GillSans,Gill Sans" font-size="52.0" fill="#000000" transform="matrix(1.00, 0.00, -0.00, -1.00, 149.5, 518.0)">g</text><text xml:space="preserve" font-family="GillSans,Gill Sans" font-size="52.0" fill="#000000" transform="matrix(1.00, 0.00, -0.00, -1.00, 171.6, 518.0)">u</text><text xml:space="preserve" font-family="GillSans,Gill Sans" font-size="52.0" fill="#000000" transform="matrix(1.00, 0.00, -0.00, -1.00, 197.6, 518.0)">l</text><text xml:space="preserve" font-family="GillSans,Gill Sans" font-size="52.0" fill="#000000" transform="matrix(1.00, 0.00, -0.00, -1.00, 209.1, 518.0)">a</text><text xml:space="preserve" font-family="GillSans,Gill Sans" font-size="52.0" fill="#000000" transform="matrix(1.00, 0.00, -0.00, -1.00, 231.2, 518.0)">r</text><text xml:space="preserve" font-family="GillSans,Gill Sans" font-size="52.0" fill="#000000" transform="matrix(1.00, 0.00, -0.00, -1.00, 251.8, 518.0)"> </text><text xml:space="preserve" font-family="GillSans,Gill Sans" font-size="52.0" fill="#000000" transform="matrix(1.00, 0.00, -0.00, -1.00, 266.3, 518.0)">e</text><text xml:space="preserve" font-family="GillSans,Gill Sans" font-size="52.0" fill="#000000" transform="matrix(1.00, 0.00, -0.00, -1.00, 291.2, 518.0)">x</text><text xml:space="preserve" font-family="GillSans,Gill Sans" font-size="52.0" fill="#000000" transform="matrix(1.00, 0.00, -0.00, -1.00, 317.2, 518.0)">p</text><text xml:space="preserve" font-family="GillSans,Gill Sans" font-size="52.0" fill="#000000" transform="matrix(1.00, 0.00, -0.00, -1.00, 343.2, 518.0)">r</text><text xml:space="preserve" font-family="GillSans,Gill Sans" font-size="52.0" fill="#000000" transform="matrix(1.00, 0.00, -0.00, -1.00, 362.7, 518.0)">e</text><text xml:space="preserve" font-family="GillSans,Gill Sans" font-size="52.0" fill="#000000" transform="matrix(1.00, 0.00, -0.00, -1.00, 387.6, 518.0)">s</text><text xml:space="preserve" font-family="GillSans,Gill Sans" font-size="52.0" fill="#000000" transform="matrix(1.00, 0.00, -0.00, -1.00, 407.6, 518.0)">s</text><text xml:space="preserve" font-family="GillSans,Gill Sans" font-size="52.0" fill="#000000" transform="matrix(1.00, 0.00, -0.00, -1.00, 427.6, 518.0)">i</text><text xml:space="preserve" font-family="GillSans,Gill Sans" font-size="52.0" fill="#000000" transform="matrix(1.00, 0.00, -0.00, -1.00, 439.0, 518.0)">o</text><text xml:space="preserve" font-family="GillSans,Gill Sans" font-size="52.0" fill="#000000" transform="matrix(1.00, 0.00, -0.00, -1.00, 467.7, 518.0)">n</text><text xml:space="preserve" font-family="GillSans,Gill Sans" font-size="52.0" fill="#000000" transform="matrix(1.00, 0.00, -0.00, -1.00, 493.7, 518.0)"> </text><text xml:space="preserve" font-family="GillSans,Gill Sans" font-size="52.0" fill="#000000" transform="matrix(1.00, 0.00, -0.00, -1.00, 508.2, 518.0)">a</text><text xml:space="preserve" font-family="GillSans,Gill Sans" font-size="52.0" fill="#000000" transform="matrix(1.00, 0.00, -0.00, -1.00, 530.3, 518.0)">n</text><text xml:space="preserve" font-family="GillSans,Gill Sans" font-size="52.0" fill="#000000" transform="matrix(1.00, 0.00, -0.00, -1.00, 556.3, 518.0)">d</text><text xml:space="preserve" font-family="GillSans,Gill Sans" font-size="52.0" fill="#000000" transform="matrix(1.00, 0.00, -0.00, -1.00, 582.8, 518.0)"> </text><text xml:space="preserve" font-family="GillSans,Gill Sans" font-size="52.0" fill="#000000" transform="matrix(1.00, 0.00, -0.00, -1.00, 597.3, 518.0)">g</text><text xml:space="preserve" font-family="GillSans,Gill Sans" font-size="52.0" fill="#000000" transform="matrix(1.00, 0.00, -0.00, -1.00, 619.4, 518.0)">l</text><text xml:space="preserve" font-family="GillSans,Gill Sans" font-size="52.0" fill="#000000" transform="matrix(1.00, 0.00, -0.00, -1.00, 630.9, 518.0)">o</text><text xml:space="preserve" font-family="GillSans,Gill Sans" font-size="52.0" fill="#000000" transform="matrix(1.00, 0.00, -0.00, -1.00, 659.5, 518.0)">b</text><text xml:space="preserve" font-family="GillSans,Gill Sans" font-size="52.0" fill="#000000" transform="matrix(1.00, 0.00, -0.00, -1.00, 685.5, 518.0)">b</text><text xml:space="preserve" font-family="GillSans,Gill Sans" font-size="52.0" fill="#000000" transform="matrix(1.00, 0.00, -0.00, -1.00, 711.5, 518.0)">i</text><text xml:space="preserve" font-family="GillSans,Gill Sans" font-size="52.0" fill="#000000" transform="matrix(1.00, 0.00, -0.00, -1.00, 723.0, 518.0)">n</text><text xml:space="preserve" font-family="GillSans,Gill Sans" font-size="52.0" fill="#000000" transform="matrix(1.00, 0.00, -0.00, -1.00, 749.0, 518.0)">g</text><text xml:space="preserve" font-family="GillSans,Gill Sans" font-size="52.0" fill="#000000" transform="matrix(1.00, 0.00, -0.00, -1.00, 771.1, 518.0)"> </text><text xml:space="preserve" font-family="GillSans,Gill Sans" font-size="52.0" fill="#000000" transform="matrix(1.00, 0.00, -0.00, -1.00, 785.6, 518.0)">f</text><text xml:space="preserve" font-family="GillSans,Gill Sans" font-size="52.0" fill="#000000" transform="matrix(1.00, 0.00, -0.00, -1.00, 798.6, 518.0)">r</text><text xml:space="preserve" font-family="GillSans,Gill Sans" font-size="52.0" fill="#000000" transform="matrix(1.00, 0.00, -0.00, -1.00, 819.2, 518.0)">i</text><text xml:space="preserve" font-family="GillSans,Gill Sans" font-size="52.0" fill="#000000" transform="matrix(1.00, 0.00, -0.00, -1.00, 830.6, 518.0)">e</text><text xml:space="preserve" font-family="GillSans,Gill Sans" font-size="52.0" fill="#000000" transform="matrix(1.00, 0.00, -0.00, -1.00, 855.5, 518.0)">n</text><text xml:space="preserve" font-family="GillSans,Gill Sans" font-size="52.0" fill="#000000" transform="matrix(1.00, 0.00, -0.00, -1.00, 881.5, 518.0)">d</text><text xml:space="preserve" font-family="GillSans,Gill Sans" font-size="52.0" fill="#000000" transform="matrix(1.00, 0.00, -0.00, -1.00, 908.0, 518.0)">l</text><text xml:space="preserve" font-family="GillSans,Gill Sans" font-size="52.0" fill="#000000" transform="matrix(1.00, 0.00, -0.00, -1.00, 918.9, 518.0)">y</text><text xml:space="preserve" font-family="GillSans,Gill Sans" font-size="53.8" fill="#000000" transform="matrix(1.00, 0.00, -0.00, -1.00, 132.0, 463.4)">-</text><text xml:space="preserve" font-family="GillSans,Gill Sans" font-size="43.0" fill="#000000" transform="matrix(1.00, 0.00, -0.00, -1.00, 176.0, 466.9)">a</text><text xml:space="preserve" font-family="GillSans,Gill Sans" font-size="43.0" fill="#000000" transform="matrix(1.00, 0.00, -0.00, -1.00, 192.8, 466.9)">v</text><text xml:space="preserve" font-family="GillSans,Gill Sans" font-size="43.0" fill="#000000" transform="matrix(1.00, 0.00, -0.00, -1.00, 210.8, 466.9)">o</text><text xml:space="preserve" font-family="GillSans,Gill Sans" font-size="43.0" fill="#000000" transform="matrix(1.00, 0.00, -0.00, -1.00, 234.5, 466.9)">i</text><text xml:space="preserve" font-family="GillSans,Gill Sans" font-size="43.0" fill="#000000" transform="matrix(1.00, 0.00, -0.00, -1.00, 244.0, 466.9)">d</text><text xml:space="preserve" font-family="GillSans,Gill Sans" font-size="43.0" fill="#000000" transform="matrix(1.00, 0.00, -0.00, -1.00, 265.9, 466.9)"> </text><text xml:space="preserve" font-family="GillSans,Gill Sans" font-size="43.0" fill="#000000" transform="matrix(1.00, 0.00, -0.00, -1.00, 277.8, 466.9)">s</text><text xml:space="preserve" font-family="GillSans,Gill Sans" font-size="43.0" fill="#000000" transform="matrix(1.00, 0.00, -0.00, -1.00, 294.3, 466.9)">p</text><text xml:space="preserve" font-family="GillSans,Gill Sans" font-size="43.0" fill="#000000" transform="matrix(1.00, 0.00, -0.00, -1.00, 315.8, 466.9)">a</text><text xml:space="preserve" font-family="GillSans,Gill Sans" font-size="43.0" fill="#000000" transform="matrix(1.00, 0.00, -0.00, -1.00, 334.2, 466.9)">c</text><text xml:space="preserve" font-family="GillSans,Gill Sans" font-size="43.0" fill="#000000" transform="matrix(1.00, 0.00, -0.00, -1.00, 353.0, 466.9)">e</text><text xml:space="preserve" font-family="GillSans,Gill Sans" font-size="43.0" fill="#000000" transform="matrix(1.00, 0.00, -0.00, -1.00, 373.6, 466.9)">s</text><text xml:space="preserve" font-family="GillSans,Gill Sans" font-size="43.0" fill="#000000" transform="matrix(1.00, 0.00, -0.00, -1.00, 390.1, 466.9)">,</text><text xml:space="preserve" font-family="GillSans,Gill Sans" font-size="43.0" fill="#000000" transform="matrix(1.00, 0.00, -0.00, -1.00, 395.3, 466.9)"> </text><text xml:space="preserve" font-family="GillSans,Gill Sans" font-size="43.0" fill="#000000" transform="matrix(1.00, 0.00, -0.00, -1.00, 407.2, 466.9)">p</text><text xml:space="preserve" font-family="GillSans,Gill Sans" font-size="43.0" fill="#000000" transform="matrix(1.00, 0.00, -0.00, -1.00, 428.7, 466.9)">u</text><text xml:space="preserve" font-family="GillSans,Gill Sans" font-size="43.0" fill="#000000" transform="matrix(1.00, 0.00, -0.00, -1.00, 450.2, 466.9)">n</text><text xml:space="preserve" font-family="GillSans,Gill Sans" font-size="43.0" fill="#000000" transform="matrix(1.00, 0.00, -0.00, -1.00, 471.7, 466.9)">c</text><text xml:space="preserve" font-family="GillSans,Gill Sans" font-size="43.0" fill="#000000" transform="matrix(1.00, 0.00, -0.00, -1.00, 490.6, 466.9)">t</text><text xml:space="preserve" font-family="GillSans,Gill Sans" font-size="43.0" fill="#000000" transform="matrix(1.00, 0.00, -0.00, -1.00, 504.9, 466.9)">u</text><text xml:space="preserve" font-family="GillSans,Gill Sans" font-size="43.0" fill="#000000" transform="matrix(1.00, 0.00, -0.00, -1.00, 526.4, 466.9)">a</text><text xml:space="preserve" font-family="GillSans,Gill Sans" font-size="43.0" fill="#000000" transform="matrix(1.00, 0.00, -0.00, -1.00, 544.7, 466.9)">t</text><text xml:space="preserve" font-family="GillSans,Gill Sans" font-size="43.0" fill="#000000" transform="matrix(1.00, 0.00, -0.00, -1.00, 559.0, 466.9)">i</text><text xml:space="preserve" font-family="GillSans,Gill Sans" font-size="43.0" fill="#000000" transform="matrix(1.00, 0.00, -0.00, -1.00, 568.5, 466.9)">o</text><text xml:space="preserve" font-family="GillSans,Gill Sans" font-size="43.0" fill="#000000" transform="matrix(1.00, 0.00, -0.00, -1.00, 592.2, 466.9)">n</text><text xml:space="preserve" font-family="GillSans,Gill Sans" font-size="43.0" fill="#000000" transform="matrix(1.00, 0.00, -0.00, -1.00, 613.7, 466.9)">,</text><text xml:space="preserve" font-family="GillSans,Gill Sans" font-size="43.0" fill="#000000" transform="matrix(1.00, 0.00, -0.00, -1.00, 618.8, 466.9)"> </text><text xml:space="preserve" font-family="GillSans,Gill Sans" font-size="43.0" fill="#000000" transform="matrix(1.00, 0.00, -0.00, -1.00, 630.8, 466.9)">a</text><text xml:space="preserve" font-family="GillSans,Gill Sans" font-size="43.0" fill="#000000" transform="matrix(1.00, 0.00, -0.00, -1.00, 649.1, 466.9)">c</text><text xml:space="preserve" font-family="GillSans,Gill Sans" font-size="43.0" fill="#000000" transform="matrix(1.00, 0.00, -0.00, -1.00, 667.9, 466.9)">c</text><text xml:space="preserve" font-family="GillSans,Gill Sans" font-size="43.0" fill="#000000" transform="matrix(1.00, 0.00, -0.00, -1.00, 686.8, 466.9)">e</text><text xml:space="preserve" font-family="GillSans,Gill Sans" font-size="43.0" fill="#000000" transform="matrix(1.00, 0.00, -0.00, -1.00, 707.4, 466.9)">n</text><text xml:space="preserve" font-family="GillSans,Gill Sans" font-size="43.0" fill="#000000" transform="matrix(1.00, 0.00, -0.00, -1.00, 728.9, 466.9)">t</text><text xml:space="preserve" font-family="GillSans,Gill Sans" font-size="43.0" fill="#000000" transform="matrix(1.00, 0.00, -0.00, -1.00, 743.2, 466.9)">e</text><text xml:space="preserve" font-family="GillSans,Gill Sans" font-size="43.0" fill="#000000" transform="matrix(1.00, 0.00, -0.00, -1.00, 763.8, 466.9)">d</text><text xml:space="preserve" font-family="GillSans,Gill Sans" font-size="43.0" fill="#000000" transform="matrix(1.00, 0.00, -0.00, -1.00, 785.7, 466.9)"> </text><text xml:space="preserve" font-family="GillSans,Gill Sans" font-size="43.0" fill="#000000" transform="matrix(1.00, 0.00, -0.00, -1.00, 176.0, 417.9)">c</text><text xml:space="preserve" font-family="GillSans,Gill Sans" font-size="43.0" fill="#000000" transform="matrix(1.00, 0.00, -0.00, -1.00, 194.8, 417.9)">h</text><text xml:space="preserve" font-family="GillSans,Gill Sans" font-size="43.0" fill="#000000" transform="matrix(1.00, 0.00, -0.00, -1.00, 216.3, 417.9)">a</text><text xml:space="preserve" font-family="GillSans,Gill Sans" font-size="43.0" fill="#000000" transform="matrix(1.00, 0.00, -0.00, -1.00, 234.7, 417.9)">r</text><text xml:space="preserve" font-family="GillSans,Gill Sans" font-size="43.0" fill="#000000" transform="matrix(1.00, 0.00, -0.00, -1.00, 251.7, 417.9)">a</text><text xml:space="preserve" font-family="GillSans,Gill Sans" font-size="43.0" fill="#000000" transform="matrix(1.00, 0.00, -0.00, -1.00, 270.0, 417.9)">c</text><text xml:space="preserve" font-family="GillSans,Gill Sans" font-size="43.0" fill="#000000" transform="matrix(1.00, 0.00, -0.00, -1.00, 288.9, 417.9)">t</text><text xml:space="preserve" font-family="GillSans,Gill Sans" font-size="43.0" fill="#000000" transform="matrix(1.00, 0.00, -0.00, -1.00, 303.2, 417.9)">e</text><text xml:space="preserve" font-family="GillSans,Gill Sans" font-size="43.0" fill="#000000" transform="matrix(1.00, 0.00, -0.00, -1.00, 323.8, 417.9)">r</text><text xml:space="preserve" font-family="GillSans,Gill Sans" font-size="43.0" fill="#000000" transform="matrix(1.00, 0.00, -0.00, -1.00, 340.8, 417.9)">s</text><text xml:space="preserve" font-family="GillSans,Gill Sans" font-size="43.0" fill="#000000" transform="matrix(1.00, 0.00, -0.00, -1.00, 357.4, 417.9)">,</text><text xml:space="preserve" font-family="GillSans,Gill Sans" font-size="43.0" fill="#000000" transform="matrix(1.00, 0.00, -0.00, -1.00, 362.5, 417.9)"> </text><text xml:space="preserve" font-family="GillSans,Gill Sans" font-size="43.0" fill="#000000" transform="matrix(1.00, 0.00, -0.00, -1.00, 374.4, 417.9)">c</text><text xml:space="preserve" font-family="GillSans,Gill Sans" font-size="43.0" fill="#000000" transform="matrix(1.00, 0.00, -0.00, -1.00, 393.3, 417.9)">a</text><text xml:space="preserve" font-family="GillSans,Gill Sans" font-size="43.0" fill="#000000" transform="matrix(1.00, 0.00, -0.00, -1.00, 411.6, 417.9)">s</text><text xml:space="preserve" font-family="GillSans,Gill Sans" font-size="43.0" fill="#000000" transform="matrix(1.00, 0.00, -0.00, -1.00, 428.1, 417.9)">e</text><text xml:space="preserve" font-family="GillSans,Gill Sans" font-size="43.0" fill="#000000" transform="matrix(1.00, 0.00, -0.00, -1.00, 448.7, 417.9)"> </text><text xml:space="preserve" font-family="GillSans,Gill Sans" font-size="43.0" fill="#000000" transform="matrix(1.00, 0.00, -0.00, -1.00, 460.7, 417.9)">s</text><text xml:space="preserve" font-family="GillSans,Gill Sans" font-size="43.0" fill="#000000" transform="matrix(1.00, 0.00, -0.00, -1.00, 477.2, 417.9)">e</text><text xml:space="preserve" font-family="GillSans,Gill Sans" font-size="43.0" fill="#000000" transform="matrix(1.00, 0.00, -0.00, -1.00, 497.8, 417.9)">n</text><text xml:space="preserve" font-family="GillSans,Gill Sans" font-size="43.0" fill="#000000" transform="matrix(1.00, 0.00, -0.00, -1.00, 519.3, 417.9)">s</text><text xml:space="preserve" font-family="GillSans,Gill Sans" font-size="43.0" fill="#000000" transform="matrix(1.00, 0.00, -0.00, -1.00, 535.8, 417.9)">i</text><text xml:space="preserve" font-family="GillSans,Gill Sans" font-size="43.0" fill="#000000" transform="matrix(1.00, 0.00, -0.00, -1.00, 545.3, 417.9)">t</text><text xml:space="preserve" font-family="GillSans,Gill Sans" font-size="43.0" fill="#000000" transform="matrix(1.00, 0.00, -0.00, -1.00, 559.6, 417.9)">i</text><text xml:space="preserve" font-family="GillSans,Gill Sans" font-size="43.0" fill="#000000" transform="matrix(1.00, 0.00, -0.00, -1.00, 569.0, 417.9)">v</text><text xml:space="preserve" font-family="GillSans,Gill Sans" font-size="43.0" fill="#000000" transform="matrix(1.00, 0.00, -0.00, -1.00, 587.9, 417.9)">i</text><text xml:space="preserve" font-family="GillSans,Gill Sans" font-size="43.0" fill="#000000" transform="matrix(1.00, 0.00, -0.00, -1.00, 597.3, 417.9)">t</text><text xml:space="preserve" font-family="GillSans,Gill Sans" font-size="43.0" fill="#000000" transform="matrix(1.00, 0.00, -0.00, -1.00, 611.6, 417.9)">y</text><text xml:space="preserve" font-family="GillSans,Gill Sans" font-size="58.0" fill="#000000" transform="matrix(1.00, 0.00, -0.00, -1.00, 105.0, 289.4)">e</text><text xml:space="preserve" font-family="GillSans,Gill Sans" font-size="58.0" fill="#000000" transform="matrix(1.00, 0.00, -0.00, -1.00, 132.8, 289.4)">a</text><text xml:space="preserve" font-family="GillSans,Gill Sans" font-size="58.0" fill="#000000" transform="matrix(1.00, 0.00, -0.00, -1.00, 157.5, 289.4)">s</text><text xml:space="preserve" font-family="GillSans,Gill Sans" font-size="58.0" fill="#000000" transform="matrix(1.00, 0.00, -0.00, -1.00, 179.8, 289.4)">y</text><text xml:space="preserve" font-family="GillSans,Gill Sans" font-size="58.0" fill="#000000" transform="matrix(1.00, 0.00, -0.00, -1.00, 205.2, 289.4)"> </text><text xml:space="preserve" font-family="GillSans,Gill Sans" font-size="58.0" fill="#000000" transform="matrix(1.00, 0.00, -0.00, -1.00, 221.3, 289.4)">t</text><text xml:space="preserve" font-family="GillSans,Gill Sans" font-size="58.0" fill="#000000" transform="matrix(1.00, 0.00, -0.00, -1.00, 240.6, 289.4)">o</text><text xml:space="preserve" font-family="GillSans,Gill Sans" font-size="58.0" fill="#000000" transform="matrix(1.00, 0.00, -0.00, -1.00, 272.6, 289.4)"> </text><text xml:space="preserve" font-family="GillSans,Gill Sans" font-size="58.0" fill="#000000" transform="matrix(1.00, 0.00, -0.00, -1.00, 288.7, 289.4)">c</text><text xml:space="preserve" font-family="GillSans,Gill Sans" font-size="58.0" fill="#000000" transform="matrix(1.00, 0.00, -0.00, -1.00, 314.1, 289.4)">o</text><text xml:space="preserve" font-family="GillSans,Gill Sans" font-size="58.0" fill="#000000" transform="matrix(1.00, 0.00, -0.00, -1.00, 346.1, 289.4)">m</text><text xml:space="preserve" font-family="GillSans,Gill Sans" font-size="58.0" fill="#000000" transform="matrix(1.00, 0.00, -0.00, -1.00, 390.9, 289.4)">p</text><text xml:space="preserve" font-family="GillSans,Gill Sans" font-size="58.0" fill="#000000" transform="matrix(1.00, 0.00, -0.00, -1.00, 419.9, 289.4)">u</text><text xml:space="preserve" font-family="GillSans,Gill Sans" font-size="58.0" fill="#000000" transform="matrix(1.00, 0.00, -0.00, -1.00, 448.9, 289.4)">t</text><text xml:space="preserve" font-family="GillSans,Gill Sans" font-size="58.0" fill="#000000" transform="matrix(1.00, 0.00, -0.00, -1.00, 468.2, 289.4)">e</text><text xml:space="preserve" font-family="GillSans,Gill Sans" font-size="58.0" fill="#000000" transform="matrix(1.00, 0.00, -0.00, -1.00, 495.9, 289.4)"> </text><text xml:space="preserve" font-family="GillSans,Gill Sans" font-size="58.0" fill="#000000" transform="matrix(1.00, 0.00, -0.00, -1.00, 512.1, 289.4)">o</text><text xml:space="preserve" font-family="GillSans,Gill Sans" font-size="58.0" fill="#000000" transform="matrix(1.00, 0.00, -0.00, -1.00, 544.0, 289.4)">n</text><text xml:space="preserve" font-family="GillSans,Gill Sans" font-size="53.8" fill="#000000" transform="matrix(1.00, 0.00, -0.00, -1.00, 132.0, 233.4)">-</text><text xml:space="preserve" font-family="GillSans,Gill Sans" font-size="43.0" fill="#000000" transform="matrix(1.00, 0.00, -0.00, -1.00, 176.0, 236.9)">d</text><text xml:space="preserve" font-family="GillSans,Gill Sans" font-size="43.0" fill="#000000" transform="matrix(1.00, 0.00, -0.00, -1.00, 197.9, 236.9)">e</text><text xml:space="preserve" font-family="GillSans,Gill Sans" font-size="43.0" fill="#000000" transform="matrix(1.00, 0.00, -0.00, -1.00, 218.5, 236.9)">l</text><text xml:space="preserve" font-family="GillSans,Gill Sans" font-size="43.0" fill="#000000" transform="matrix(1.00, 0.00, -0.00, -1.00, 227.9, 236.9)">i</text><text xml:space="preserve" font-family="GillSans,Gill Sans" font-size="43.0" fill="#000000" transform="matrix(1.00, 0.00, -0.00, -1.00, 237.4, 236.9)">b</text><text xml:space="preserve" font-family="GillSans,Gill Sans" font-size="43.0" fill="#000000" transform="matrix(1.00, 0.00, -0.00, -1.00, 258.9, 236.9)">e</text><text xml:space="preserve" font-family="GillSans,Gill Sans" font-size="43.0" fill="#000000" transform="matrix(1.00, 0.00, -0.00, -1.00, 279.5, 236.9)">r</text><text xml:space="preserve" font-family="GillSans,Gill Sans" font-size="43.0" fill="#000000" transform="matrix(1.00, 0.00, -0.00, -1.00, 296.5, 236.9)">a</text><text xml:space="preserve" font-family="GillSans,Gill Sans" font-size="43.0" fill="#000000" transform="matrix(1.00, 0.00, -0.00, -1.00, 314.8, 236.9)">t</text><text xml:space="preserve" font-family="GillSans,Gill Sans" font-size="43.0" fill="#000000" transform="matrix(1.00, 0.00, -0.00, -1.00, 329.2, 236.9)">e</text><text xml:space="preserve" font-family="GillSans,Gill Sans" font-size="43.0" fill="#000000" transform="matrix(1.00, 0.00, -0.00, -1.00, 349.8, 236.9)"> </text><text xml:space="preserve" font-family="GillSans,Gill Sans" font-size="43.0" fill="#000000" transform="matrix(1.00, 0.00, -0.00, -1.00, 361.7, 236.9)">u</text><text xml:space="preserve" font-family="GillSans,Gill Sans" font-size="43.0" fill="#000000" transform="matrix(1.00, 0.00, -0.00, -1.00, 383.2, 236.9)">s</text><text xml:space="preserve" font-family="GillSans,Gill Sans" font-size="43.0" fill="#000000" transform="matrix(1.00, 0.00, -0.00, -1.00, 399.7, 236.9)">e</text><text xml:space="preserve" font-family="GillSans,Gill Sans" font-size="43.0" fill="#000000" transform="matrix(1.00, 0.00, -0.00, -1.00, 420.3, 236.9)"> </text><text xml:space="preserve" font-family="GillSans,Gill Sans" font-size="43.0" fill="#000000" transform="matrix(1.00, 0.00, -0.00, -1.00, 432.3, 236.9)">o</text><text xml:space="preserve" font-family="GillSans,Gill Sans" font-size="43.0" fill="#000000" transform="matrix(1.00, 0.00, -0.00, -1.00, 456.0, 236.9)">f</text><text xml:space="preserve" font-family="GillSans,Gill Sans" font-size="43.0" fill="#000000" transform="matrix(1.00, 0.00, -0.00, -1.00, 466.7, 236.9)"> </text><text xml:space="preserve" font-family="GillSans,Gill Sans" font-size="43.0" fill="#000000" transform="matrix(1.00, 0.00, -0.00, -1.00, 478.7, 236.9)">d</text><text xml:space="preserve" font-family="GillSans,Gill Sans" font-size="43.0" fill="#000000" transform="matrix(1.00, 0.00, -0.00, -1.00, 500.6, 236.9)">e</text><text xml:space="preserve" font-family="GillSans,Gill Sans" font-size="43.0" fill="#000000" transform="matrix(1.00, 0.00, -0.00, -1.00, 521.2, 236.9)">l</text><text xml:space="preserve" font-family="GillSans,Gill Sans" font-size="43.0" fill="#000000" transform="matrix(1.00, 0.00, -0.00, -1.00, 530.6, 236.9)">i</text><text xml:space="preserve" font-family="GillSans,Gill Sans" font-size="43.0" fill="#000000" transform="matrix(1.00, 0.00, -0.00, -1.00, 540.1, 236.9)">m</text><text xml:space="preserve" font-family="GillSans,Gill Sans" font-size="43.0" fill="#000000" transform="matrix(1.00, 0.00, -0.00, -1.00, 573.2, 236.9)">i</text><text xml:space="preserve" font-family="GillSans,Gill Sans" font-size="43.0" fill="#000000" transform="matrix(1.00, 0.00, -0.00, -1.00, 582.6, 236.9)">t</text><text xml:space="preserve" font-family="GillSans,Gill Sans" font-size="43.0" fill="#000000" transform="matrix(1.00, 0.00, -0.00, -1.00, 597.0, 236.9)">e</text><text xml:space="preserve" font-family="GillSans,Gill Sans" font-size="43.0" fill="#000000" transform="matrix(1.00, 0.00, -0.00, -1.00, 617.6, 236.9)">r</text><text xml:space="preserve" font-family="GillSans,Gill Sans" font-size="43.0" fill="#000000" transform="matrix(1.00, 0.00, -0.00, -1.00, 634.6, 236.9)">s</text></g></svg>